<?xml version="1.0" encoding="utf-8"?>
<!-- Generator: Adobe Illustrator 17.1.0, SVG Export Plug-In . SVG Version: 6.00 Build 0)  -->
<!DOCTYPE svg PUBLIC "-//W3C//DTD SVG 1.1//EN" "http://www.w3.org/Graphics/SVG/1.1/DTD/svg11.dtd">
<svg version="1.1" id="Layer_1" xmlns:sketch="http://www.bohemiancoding.com/sketch/ns"
	 xmlns="http://www.w3.org/2000/svg" xmlns:xlink="http://www.w3.org/1999/xlink" x="0px" y="0px" viewBox="0 0 224 110"
	 enable-background="new 0 0 224 110" xml:space="preserve">
<title>delorean</title>
<desc>Created with Sketch Beta.</desc>
<path id="Line" sketch:type="MSShapeGroup" fill="none" stroke="#FFFFFF" stroke-width="7" stroke-linecap="round" d="M26.5,55.5
	l-16-1.7"/>
<path id="Line-Copy-3" sketch:type="MSShapeGroup" fill="none" stroke="#FFFFFF" stroke-width="7" stroke-linecap="round" d="
	M211.5,57.5l-12,0.3"/>
<path id="body" sketch:type="MSShapeGroup" fill="#FFFFFF" fill-opacity="0.3" stroke="#FFFFFF" stroke-width="3" stroke-linecap="round" stroke-linejoin="round" d="
	M28,53.3L9,51L5,38l5-14l62-14l42,1l33,14l68,8l5,14l-6,10l-17,0.3c0-0.1,0-0.2,0-0.3c0-10.5-8.5-19-19-19s-19,8.5-19,19
	c0,0.3,0,0.7,0,1H68l-2.4-0.3c0.2-1.2,0.4-2.4,0.4-3.7c0-10.5-8.5-19-19-19C36.8,35,28.4,43.1,28,53.3z M79,17c0-1.7,1.3-3,3-2.9
	l28,0.8c1.7,0,4.2,0.6,5.7,1.3l21.5,9.6c1.5,0.7,1.4,1.2-0.3,1.2L82,26c-1.7,0-3-1.4-3-3V17z M22.6,22.9c0.2-0.5,0.9-1,1.4-1.1
	l31-6.6c0.5-0.1,1.4-0.2,2-0.2h7c0.6,0,1,0.4,1,1v7c0,0.6-0.5,1-1,1H23c-0.6,0-0.8-0.4-0.6-0.9L22.6,22.9z"/>
<path id="highlight" sketch:type="MSShapeGroup" opacity="0.4" fill="#FFFFFF" enable-background="new    " d="M152,27l-6,9l-94-1
	L29,22l39-11l46,1l33,13L152,27z M155,27c-1,1-6,9-6,9l13-8C162,28,156,26,155,27z"/>
<path id="window" sketch:type="MSShapeGroup" fill="none" stroke="#FFFFFF" stroke-width="3" stroke-linecap="round" stroke-linejoin="round" d="
	M79,17c0-1.7,1.3-3,3-2.9l28,0.8c1.7,0,4.2,0.6,5.7,1.3l21.5,9.6c1.5,0.7,1.4,1.2-0.3,1.2L82,26c-1.7,0-3-1.4-3-3V17z"/>
<path id="body-copy" sketch:type="MSShapeGroup" fill="none" stroke="#FFFFFF" stroke-width="3" stroke-linecap="round" stroke-linejoin="round" d="
	M28,53.3L9,51L5,38l5-14l62-14l42,1l33,14l68,8l5,14l-6,10l-17,0.3c0-0.1,0-0.2,0-0.3c0-10.5-8.5-19-19-19s-19,8.5-19,19
	c0,0.3,0,0.7,0,1H68l-2.4-0.3c0.2-1.2,0.4-2.4,0.4-3.7c0-10.5-8.5-19-19-19C36.8,35,28.4,43.1,28,53.3z M79,17c0-1.7,1.3-3,3-2.9
	l28,0.8c1.7,0,4.2,0.6,5.7,1.3l21.5,9.6c1.5,0.7,1.4,1.2-0.3,1.2L82,26c-1.7,0-3-1.4-3-3V17z M22.6,22.9c0.2-0.5,0.9-1,1.4-1.1
	l31-6.6c0.5-0.1,1.4-0.2,2-0.2h7c0.6,0,1,0.4,1,1v7c0,0.6-0.5,1-1,1H23c-0.6,0-0.8-0.4-0.6-0.9L22.6,22.9z"/>
<path id="Line_1_" sketch:type="MSShapeGroup" fill="none" stroke="#FFFFFF" stroke-width="3" stroke-linecap="square" d="M77.5,4.5
	v2"/>
<rect id="Rectangle-31" x="73" y="7" sketch:type="MSShapeGroup" fill="#FFFFFF" fill-opacity="0.3" stroke="#FFFFFF" stroke-width="2" stroke-linejoin="round" width="10" height="3">
</rect>
<path id="Rectangle-32" sketch:type="MSShapeGroup" fill="#FFFFFF" fill-opacity="0.3" stroke="#FFFFFF" stroke-width="2" d="M74,1
	h9c1.1,0,2,0.7,2,1.5l0,0C85,3.3,84.1,4,83,4h-9c-1.1,0-2-0.7-2-1.5l0,0C72,1.7,72.9,1,74,1z"/>
<path id="Line_2_" sketch:type="MSShapeGroup" fill="none" stroke="#FFFFFF" stroke-width="3" stroke-linecap="round" d="M74.5,39.5
	l86,1"/>
<path id="Path-49" sketch:type="MSShapeGroup" fill="#FFFFFF" stroke="#FFFFFF" stroke-linejoin="round" d="M36,18L14,7l-4,10v7
	L36,18z"/>
<path id="Path-50" sketch:type="MSShapeGroup" fill="none" stroke="#FFFFFF" stroke-width="2" stroke-linecap="round" stroke-linejoin="round" d="
	M26,17c0,0,4-6,18-1"/>
<path id="Rectangle-23" sketch:type="MSShapeGroup" fill="#FFFFFF" fill-opacity="0.3" stroke="#FFFFFF" d="M45,20c0,0,0-1,2-1
	s2,1,2,1v4h-4V20z"/>
<path id="Rectangle-23-Copy" sketch:type="MSShapeGroup" fill="#FFFFFF" fill-opacity="0.3" stroke="#FFFFFF" d="M51,20c0,0,0-1,2-1
	s2,1,2,1v4h-4V20z"/>
<path id="Rectangle-23-Copy-2" sketch:type="MSShapeGroup" fill="#FFFFFF" fill-opacity="0.3" stroke="#FFFFFF" d="M57,20
	c0,0,0-1,2-1s2,1,2,1v4h-4V20z"/>
<path id="Path-52" sketch:type="MSShapeGroup" fill="#FFFFFF" d="M138.6,26.3c-0.2-0.5-0.8-1.1-1.3-1.3l-9.6-4.3
	c-1.5-0.7-2.7,0.1-2.7,1.8v4.9c0,1.1,0.9,2,2,2h9.8c1.7,0,2.5-1.2,1.8-2.8L138.6,26.3z"/>
<path id="Path-53" sketch:type="MSShapeGroup" fill="none" stroke="#FFFFFF" stroke-width="5" stroke-linecap="round" d="M55,29
	c0,0,15,4,15.7,17.5c0.1,2.7,2,5.5,4.9,5.5h70.5c3.9,0,6.9-0.9,9.8-7.1s12.8-12.3,20.6-12.3s11.8,0.9,16.7,1.8s8.9,3.2,8.9,3.2
	c0.5,0.3,0.9,0.9,0.9,1.5v1.7"/>
<circle id="Oval-54" sketch:type="MSShapeGroup" fill="#FFFFFF" cx="81.5" cy="31.5" r="1.5">
</circle>
<path id="Rectangle-27" sketch:type="MSShapeGroup" fill="#FFFFFF" stroke="#FFFFFF" stroke-width="3" d="M201,40h5c1.1,0,2,0.9,2,2
	v6c0,1.1-0.9,2-2,2h-5c-1.1,0-2-0.9-2-2v-6C199,40.9,199.9,40,201,40z"/>
<path id="Rectangle-27-Copy" sketch:type="MSShapeGroup" fill="#FFFFFF" stroke="#FFFFFF" stroke-width="3" d="M207,41h15
	c1.1,0,2,0.9,2,2v5c0,1.1-0.9,2-2,2h-15c-1.1,0-2-0.9-2-2v-5C205,41.9,205.9,41,207,41z"/>
<path id="Rectangle-27-Copy-2" sketch:type="MSShapeGroup" fill="#FFFFFF" stroke="#FFFFFF" stroke-width="3" d="M2,35h15
	c1.1,0,2,0.9,2,2v5c0,1.1-0.9,2-2,2H2c-1.1,0-2-0.9-2-2v-5C0,35.9,0.9,35,2,35z"/>
<path id="Rectangle-22" sketch:type="MSShapeGroup" opacity="0.5" fill="#FFFFFF" stroke="#FFFFFF" enable-background="new    " d="
	M27,18c0-0.6,0.4-1,1-1h1c0.6,0,1,0.4,1,1v1c0,0.6-0.4,1.1-0.9,1.3l-1.1,0.4C27.4,20.9,27,20.6,27,20V18z"/>
<path id="Rectangle-29" sketch:type="MSShapeGroup" fill="#FFFFFF" d="M30,60h29c1.7,0,3,1.3,3,3v6c0,1.7-1.3,3-3,3H30
	c-1.7,0-3-1.3-3-3v-6C27,61.3,28.3,60,30,60z"/>
<path id="Line-Copy" fill="#51A601" stroke="#FFFFFF" stroke-width="1.8236" stroke-linecap="round" d="M42,53.9l7.8,0.2"/>
<path id="Line-Copy-2" fill="#51A601" stroke="#FFFFFF" stroke-width="1.8236" stroke-linecap="round" d="M42.7,51.1l7.8,0.2"/>
<path id="Line_3_" fill="#51A601" stroke="#FFFFFF" stroke-width="1.8236" stroke-linecap="round" d="M41.3,56.6l7.8,0.2"/>
<path id="Oval-23" fill="#FFFFFF" d="M51.7,45.6c0.5-1.9-0.7-3.9-2.7-4.3c-1.9-0.5-3.9,0.7-4.4,2.6l-1.1,4.3
	c-0.1,0.3,0.1,0.6,0.5,0.6l6.2,0.3c0.3,0,0.7-0.2,0.8-0.6L51.7,45.6z M47.9,45.9c0.6,0.2,1.3-0.2,1.5-0.9c0.2-0.6-0.2-1.3-0.9-1.4
	c-0.6-0.2-1.3,0.2-1.5,0.9C46.9,45.1,47.3,45.7,47.9,45.9z"/>
<path id="Line-Copy_1_" fill="#51A601" stroke="#FFFFFF" stroke-width="1.8236" stroke-linecap="round" d="M174.2,58l7.6-1.7"/>
<path id="Line-Copy-2_1_" fill="#51A601" stroke="#FFFFFF" stroke-width="1.8236" stroke-linecap="round" d="M174.2,55.1l7.6-1.7"/>
<path id="Line_4_" fill="#51A601" stroke="#FFFFFF" stroke-width="1.8236" stroke-linecap="round" d="M174.2,60.8l7.6-1.7"/>
<path id="Oval-23_1_" fill="#FFFFFF" d="M181.6,47.6c0-2-1.6-3.6-3.6-3.6s-3.6,1.6-3.6,3.6V52c0,0.3,0.3,0.5,0.6,0.5l6.1-1.2
	c0.3-0.1,0.6-0.4,0.6-0.7V47.6z M178,48.7c0.7,0,1.2-0.5,1.2-1.2s-0.5-1.2-1.2-1.2s-1.2,0.5-1.2,1.2S177.3,48.7,178,48.7z"/>
<path id="Rectangle-29-Copy" sketch:type="MSShapeGroup" fill="#FFFFFF" d="M164.5,60h29c1.7,0,3,1.3,3,3v6c0,1.7-1.3,3-3,3h-29
	c-1.7,0-3-1.3-3-3v-6C161.5,61.3,162.8,60,164.5,60z"/>
<path id="Shape" sketch:type="MSShapeGroup" fill="#FFFFFF" stroke="#FFFFFF" stroke-width="3" stroke-linejoin="round" d="M67,8.8
	c0,0.6-0.1,1.4-0.1,2.2c-0.1,2.2-0.4,4.4-0.8,6.5C65.2,21.8,60.5,25,52,25H30c-10.8,0-17,7-17,32l6,1c0-22,4.2-27,11-27h22
	c11.2,0,18.5-5,19.9-12.4c0.5-2.3,0.8-4.8,0.9-7.3c0.1-0.9,0.1-1.7,0.1-2.4c0-0.4,0-0.8,0-0.9h-6C67,8.1,67,8.4,67,8.8z"/>
<path id="Line-Copy-7" sketch:type="MSShapeGroup" opacity="0.8" fill="none" stroke="#FFFFFF" stroke-width="2" stroke-linecap="square" d="
	M121,55.5v-7"/>
<path id="Line-Copy-8" sketch:type="MSShapeGroup" opacity="0.8" fill="none" stroke="#FFFFFF" stroke-width="2" stroke-linecap="square" d="
	M158,48l-6-3.5"/>
<path id="Line-Copy-9" sketch:type="MSShapeGroup" opacity="0.8" fill="none" stroke="#FFFFFF" stroke-width="2" stroke-linecap="square" d="
	M171,35.8l-2-4.5"/>
<path id="Line_5_" sketch:type="MSShapeGroup" fill="none" stroke="#FFFFFF" stroke-width="2" stroke-linecap="round" stroke-linejoin="round" d="
	M13.5,7.5l4,2"/>
<path id="Line-Copy_2_" sketch:type="MSShapeGroup" fill="none" stroke="#FFFFFF" stroke-width="2" stroke-linecap="round" stroke-linejoin="round" d="
	M11.5,11.5l4,2"/>
<path id="Line-Copy-2_2_" sketch:type="MSShapeGroup" fill="none" stroke="#FFFFFF" stroke-width="2" stroke-linecap="round" stroke-linejoin="round" d="
	M10,16l3.5,1.5"/>
<path id="Line_8_" sketch:type="MSShapeGroup" opacity="0.8" fill="none" stroke="#FFFFFF" stroke-width="2" stroke-linecap="square" d="
	M80,54.5v-7"/>
<path id="Oval-61" sketch:type="MSShapeGroup" opacity="0.1" fill="none" stroke="#FFFFFF" stroke-width="6" stroke-linecap="round" enable-background="new    " d="
	M184.7,81c-3.1,3.1-8.2,3.1-11.3,0"/>
<path id="Oval-61-Copy" sketch:type="MSShapeGroup" opacity="0.1" fill="none" stroke="#FFFFFF" stroke-width="6" stroke-linecap="round" enable-background="new    " d="
	M190.5,90c-6.4,6.7-16.6,6.7-23,0"/>
<path id="Oval-61-Copy-2" sketch:type="MSShapeGroup" opacity="0.1" fill="none" stroke="#FFFFFF" stroke-width="6" stroke-linecap="round" enable-background="new    " d="
	M197,99.2c-9.9,9.6-26.1,9.6-36,0"/>
<path id="Oval-61-Copy-5" sketch:type="MSShapeGroup" opacity="0.1" fill="none" stroke="#FFFFFF" stroke-width="6" stroke-linecap="round" enable-background="new    " d="
	M49.7,81c-3.1,3.1-8.2,3.1-11.3,0"/>
<path id="Oval-61-Copy-3" sketch:type="MSShapeGroup" opacity="0.1" fill="none" stroke="#FFFFFF" stroke-width="6" stroke-linecap="round" enable-background="new    " d="
	M55.5,90c-6.4,6.7-16.6,6.7-23,0"/>
<path id="Oval-61-Copy-4" sketch:type="MSShapeGroup" opacity="0.1" fill="none" stroke="#FFFFFF" stroke-width="6" stroke-linecap="round" enable-background="new    " d="
	M62,99.2c-9.9,9.6-26.1,9.6-36,0"/>
<path id="Line_9_" sketch:type="MSShapeGroup" opacity="0.8" fill="none" stroke="#FFFFFF" stroke-width="2" stroke-linecap="square" d="
	M65.5,39.5l5-4"/>
<path id="Path-79" sketch:type="MSShapeGroup" fill="none" stroke="#FFFFFF" stroke-width="2" d="M61,12c0,0-28-7-13,3"/>
<path fill="#FFFFFF" d="M156.5,56.5h-89c-2.2,0-4,1.8-4,4s1.8,4,4,4h89c2.2,0,4-1.8,4-4S158.7,56.5,156.5,56.5z M81.5,62.5
	c-0.8,0-1.5-0.7-1.5-1.5s0.7-1.5,1.5-1.5S83,60.2,83,61S82.3,62.5,81.5,62.5z M118.6,62.5H85.5c-0.8,0-1.5-0.7-1.5-1.5
	s0.7-1.5,1.5-1.5h33.1c0.8,0,1.5,0.7,1.5,1.5S119.4,62.5,118.6,62.5z"/>
</svg>
