<?xml version="1.0" encoding="utf-8"?>
<!-- Generator: Adobe Illustrator 17.1.0, SVG Export Plug-In . SVG Version: 6.00 Build 0)  -->
<!DOCTYPE svg PUBLIC "-//W3C//DTD SVG 1.1//EN" "http://www.w3.org/Graphics/SVG/1.1/DTD/svg11.dtd">
<svg version="1.1" id="Layer_1" xmlns:sketch="http://www.bohemiancoding.com/sketch/ns"
	 xmlns="http://www.w3.org/2000/svg" xmlns:xlink="http://www.w3.org/1999/xlink" x="0px" y="0px" viewBox="0 0 234 86"
	 enable-background="new 0 0 234 86" xml:space="preserve">
<title>Dragula</title>
<desc>Created with Sketch Beta.</desc>
<circle id="Oval-48" sketch:type="MSShapeGroup" fill="#FFFFFF" fill-opacity="0.3" stroke="#FFFFFF" stroke-width="3" cx="183" cy="36" r="6">
</circle>
<path id="Oval-48-Copy" sketch:type="MSShapeGroup" opacity="0.5" fill="none" stroke="#FFFFFF" stroke-width="3" stroke-linecap="round" enable-background="new    " d="
	M183,33c-1.7,0-3,1.3-3,3"/>
<path id="Oval-49" sketch:type="MSShapeGroup" fill="none" stroke="#FFFFFF" stroke-width="3" d="M191,50c0-4.4-3.6-8-8-8
	s-8,3.6-8,8S191,54.4,191,50z"/>
<rect id="Rectangle-20" x="196" y="34" sketch:type="MSShapeGroup" fill="#FFFFFF" fill-opacity="0.7" stroke="#FFFFFF" stroke-width="3" stroke-linecap="round" stroke-linejoin="round" width="8" height="15">
</rect>
<path id="Line" sketch:type="MSShapeGroup" fill="none" stroke="#FFFFFF" stroke-width="3" stroke-linecap="round" d="M200,32.5v-7"
	/>
<circle id="Oval-50" sketch:type="MSShapeGroup" fill="#FFFFFF" cx="200" cy="29" r="3">
</circle>
<path id="Rectangle-14_3_" sketch:type="MSShapeGroup" fill="#FFFFFF" fill-opacity="0.3" stroke="#FFFFFF" stroke-width="3" d="
	M97.9,49H165c1.1,0,2,0.9,2,2v3c0,1.1-0.9,2-2,2H97.9"/>
<path id="Rectangle-14_2_" sketch:type="MSShapeGroup" fill="#FFFFFF" fill-opacity="0.3" stroke="#FFFFFF" stroke-width="3" d="
	M42.5,56H16c-1.1,0-2-0.9-2-2v-3c0-1.1,0.9-2,2-2h26.9"/>
<path id="Rectangle-14-Copy_1_" sketch:type="MSShapeGroup" fill="#FFFFFF" fill-opacity="0.3" stroke="#FFFFFF" stroke-width="3" d="
	M49.4,35H16c-1.1,0-1.5-0.8-0.9-1.7l3.8-5.7c0.6-0.9,2-1.7,3.1-1.7h137c1.1,0,2.5,0.8,3.1,1.7l3.8,5.7c0.6,0.9,0.2,1.7-0.9,1.7H92"
	/>
<path id="Line_1_" sketch:type="MSShapeGroup" fill="#FFFFFF" fill-opacity="0.1" stroke="#FFFFFF" stroke-width="3" stroke-linecap="round" stroke-linejoin="round" d="
	M26.5,25.5l-5-18C21.5,7.5,72-1,90,26"/>
<polyline id="Rectangle-15_3_" sketch:type="MSShapeGroup" fill="#FFFFFF" fill-opacity="0.3" stroke="#FFFFFF" stroke-width="3" points="
	92.5,35 164,35 164,49 99.4,49 ">
</polyline>
<polyline id="Rectangle-15_2_" sketch:type="MSShapeGroup" fill="#FFFFFF" fill-opacity="0.3" stroke="#FFFFFF" stroke-width="3" points="
	41.7,49 17,49 17,35 50.3,35 ">
</polyline>
<g id="Group" transform="translate(0.000000, 26.500000)" sketch:type="MSShapeGroup">
	<path id="Rectangle-17" fill="#FFFFFF" fill-opacity="0.3" stroke="#FFFFFF" stroke-width="3" d="M4,11h5c1.1,0,2,0.9,2,2v5
		c0,1.1-0.9,2-2,2H4c-1.1,0-2-0.9-2-2v-5C2,11.9,2.9,11,4,11z"/>
	<circle id="Oval-34" fill="#FFFFFF" cx="6.5" cy="15.5" r="2"/>
	<path id="Line_2_" fill="#FFFFFF" fill-opacity="0.3" stroke="#FFFFFF" stroke-width="3" d="M6.5,11.5v-9"/>
	<path id="Line_3_" fill="#FFFFFF" fill-opacity="0.3" stroke="#FFFFFF" stroke-width="3" d="M3.5,5.5h6"/>
</g>
<path id="Line_4_" sketch:type="MSShapeGroup" fill="#FFFFFF" fill-opacity="0.3" stroke="#FFFFFF" stroke-width="5" d="M11.5,42.5
	h5"/>
<rect id="Rectangle-18" x="111" y="18" sketch:type="MSShapeGroup" opacity="0.5" fill="#FFFFFF" enable-background="new    " width="29" height="5">
</rect>
<rect id="Rectangle-19" x="165" y="47" sketch:type="MSShapeGroup" fill="#FFFFFF" width="36" height="8">
</rect>
<path id="Line_5_" sketch:type="MSShapeGroup" fill="none" stroke="#FFFFFF" stroke-width="4" stroke-linecap="round" d="M115,58.5
	v-44"/>
<path id="Line-Copy" sketch:type="MSShapeGroup" fill="none" stroke="#FFFFFF" stroke-width="4" stroke-linecap="round" d="
	M122,58.5v-48"/>
<path id="Line-Copy-2" sketch:type="MSShapeGroup" fill="none" stroke="#FFFFFF" stroke-width="4" stroke-linecap="round" d="
	M129,58.5v-52"/>
<path id="Line-Copy-3" sketch:type="MSShapeGroup" fill="none" stroke="#FFFFFF" stroke-width="4" stroke-linecap="round" d="
	M136,58.5v-56"/>
<g id="Oval-50-_x2B_-Line" transform="translate(193.000000, 41.000000)" sketch:type="MSShapeGroup">
	<path id="Oval-50_1_" fill="none" stroke="#FFFFFF" stroke-width="4.7222" stroke-linecap="round" stroke-linejoin="round" d="
		M21,38c9.4,0,17-7.6,17-17S30.4,4,21,4S4,11.6,4,21S11.6,38,21,38z M21,26c2.2,0,4-1.8,4-4s-1.8-4-4-4s-4,1.8-4,4S18.8,26,21,26z"
		/>
	<path id="Line_6_" fill="none" stroke="#FFFFFF" stroke-width="1.8863" stroke-linecap="square" d="M14.2,7.7L34,29.4 M24.9,6.8
		l1.2,29.3 M33.7,13L15.8,36.2 M36.4,23.3L7.8,29.6 M31.9,33l-26-13.6 M22.2,37.5L11,10.4 M11.8,34.7l8.9-28 M5.7,25.9l24.8-15.7
		 M6.6,15.2l29.1,3.9"/>
</g>
<path id="Line_7_" sketch:type="MSShapeGroup" fill="none" stroke="#FFFFFF" stroke-width="4" stroke-linecap="round" d="M68.5,18.5
	l-5.8,7.4"/>
<path id="Line_8_" sketch:type="MSShapeGroup" opacity="0.5" fill="none" stroke="#FFFFFF" stroke-width="2" stroke-linecap="round" stroke-linejoin="round" stroke-dasharray="3" enable-background="new    " d="
	M21.5,31h31.4"/>
<path id="Line-Copy-6" sketch:type="MSShapeGroup" opacity="0.6" fill="none" stroke="#FFFFFF" stroke-width="3" stroke-linecap="round" stroke-linejoin="round" enable-background="new    " d="
	M25.5,43.5h13"/>
<g>
	<path fill="#FFFFFF" fill-opacity="0.7" stroke="#FFFFFF" stroke-width="3" stroke-linecap="round" stroke-linejoin="round" d="
		M96.8,43.5c-5.3-14.5-21.4-22-35.9-16.7c-14.5,5.3-22,21.4-16.7,35.9s21.4,22,35.9,16.7C94.6,74.1,102.1,58.1,96.8,43.5z
		 M74.6,64.4c-6.2,2.3-13.1-0.9-15.4-7.2C57,51,60.2,44.1,66.4,41.8c6.2-2.3,13.1,0.9,15.4,7.2S80.9,62.1,74.6,64.4z"/>
	<path id="Triangle-1" fill="#FFFFFF" stroke="#FFFFFF" stroke-linejoin="round" d="M75,52.2l2.5-1c1-0.4,1.9,0.1,1.9,1.2l0,1.2
		c0,1.1-0.8,1.7-1.8,1.4L75,54c0.1-0.3,0.1-0.6,0.1-0.9C75.1,52.8,75,52.5,75,52.2z M72.5,49.1l1.6-2.2c0.6-0.9,0.3-1.8-0.7-2.2
		l-1.1-0.3c-1.1-0.3-1.9,0.3-1.8,1.4l0.2,2.7c0.3,0,0.6,0.1,0.9,0.2C72,48.8,72.3,48.9,72.5,49.1z M66,51.4l-2.6-0.6
		c-1.1-0.3-1.4-1.2-0.8-2.1l0.7-1c0.6-0.9,1.6-0.9,2.3,0l1.6,2.2c-0.2,0.2-0.4,0.5-0.6,0.7C66.3,50.9,66.1,51.1,66,51.4z M67.3,56.8
		l-1.4,2.3c-0.6,0.9-1.6,1-2.3,0.1l-0.7-0.9c-0.7-0.9-0.4-1.8,0.7-2.2l2.6-0.8c0.1,0.3,0.3,0.5,0.5,0.8S67,56.7,67.3,56.8z
		 M72.8,57.3l1.8,2.1c0.7,0.8,0.4,1.8-0.6,2.2L72.9,62c-1,0.4-1.9-0.2-1.9-1.3l0-2.7c0.3,0,0.6-0.1,0.9-0.2
		C72.3,57.6,72.6,57.5,72.8,57.3z"/>
	<path id="Oval-42" fill="#FFFFFF" d="M70,51.6c0.5-0.2,0.7-0.7,0.5-1.2c-0.2-0.5-0.7-0.7-1.2-0.6c-0.5,0.2-0.7,0.7-0.5,1.2
		C69,51.5,69.5,51.8,70,51.6z M72,52.2c0.3,0.4,0.9,0.5,1.3,0.1c0.4-0.3,0.5-0.9,0.2-1.3c-0.3-0.4-0.9-0.5-1.3-0.1
		C71.8,51.3,71.7,51.8,72,52.2z M72.1,54.4c-0.3,0.4-0.2,1,0.3,1.3s1,0.2,1.3-0.2s0.2-1-0.3-1.3C73,53.9,72.4,54,72.1,54.4z
		 M70.2,55.2c-0.5-0.1-1,0.2-1.1,0.7s0.1,1,0.6,1.2c0.5,0.1,1-0.2,1.1-0.7C70.9,55.8,70.6,55.3,70.2,55.2z M68.8,53.4
		c0-0.5-0.5-0.9-1-0.9c-0.5,0-0.9,0.4-0.9,0.9c0,0.5,0.5,0.9,1,0.9C68.4,54.3,68.8,53.9,68.8,53.4z"/>
</g>
<path id="Line_9_" sketch:type="MSShapeGroup" opacity="0.6" fill="none" stroke="#FFFFFF" stroke-width="3" stroke-linecap="round" stroke-linejoin="round" enable-background="new    " d="
	M103.5,43.5h48"/>
<path id="Line_10_" sketch:type="MSShapeGroup" opacity="0.1" fill="none" stroke="#FFFFFF" stroke-width="5" stroke-linecap="round" enable-background="new    " d="
	M18.5,83.5h207.1"/>
<path id="Line_11_" sketch:type="MSShapeGroup" fill="#FFFFFF" fill-opacity="0.3" stroke="#FFFFFF" stroke-width="3" d="M25.5,6.5
	L31,25.6"/>
<path id="Line_12_" sketch:type="MSShapeGroup" fill="none" stroke="#FFFFFF" stroke-width="3" stroke-linecap="square" d="
	M172.5,52.5l23,8"/>
</svg>
