<?xml version="1.0" encoding="UTF-8" standalone="no"?>
<svg width="170px" height="170px" viewBox="0 0 170 170" version="1.1" xmlns="http://www.w3.org/2000/svg" xmlns:xlink="http://www.w3.org/1999/xlink" xmlns:sketch="http://www.bohemiancoding.com/sketch/ns">
    <!-- Generator: Sketch 3.3.3 (12081) - http://www.bohemiancoding.com/sketch -->
    <title>gBlock</title>
    <desc>Created with Sketch.</desc>
    <defs></defs>
    <g id="Page-1" stroke="none" stroke-width="1" fill="none" fill-rule="evenodd" sketch:type="MSPage">
        <g id="gBlock" sketch:type="MSArtboardGroup">
            <rect id="Rectangle-3-Copy-7" stroke="#FFFFFF" stroke-width="9" sketch:type="MSShapeGroup" x="10" y="10" width="149" height="149"></rect>
            <path d="M131.8,105.3 C131.8,113.100039 129.616689,118.916647 125.25,122.75 C120.883312,126.583353 114.600041,128.5 106.4,128.5 C103.799987,128.5 101.183346,128.233336 98.55,127.7 C95.9166535,127.166664 93.5166775,126.266673 91.35,125 C89.1833225,123.733327 87.366674,122.066677 85.9,120 C84.433326,117.933323 83.566668,115.400015 83.3,112.4 L94.7,112.4 C95.033335,114.000008 95.599996,115.299995 96.4,116.3 C97.200004,117.300005 98.1499945,118.083331 99.25,118.65 C100.350006,119.216669 101.56666,119.583332 102.9,119.75 C104.23334,119.916668 105.633326,120 107.1,120 C111.700023,120 115.066656,118.866678 117.2,116.6 C119.333344,114.333322 120.4,111.066688 120.4,106.8 L120.4,98.9 L120.2,98.9 C118.599992,101.766681 116.41668,103.999992 113.65,105.6 C110.883319,107.200008 107.900016,108 104.7,108 C100.566646,108 97.0500145,107.283341 94.15,105.85 C91.2499855,104.41666 88.8500095,102.450012 86.95,99.95 C85.0499905,97.4499875 83.666671,94.566683 82.8,91.3 C81.933329,88.033317 81.5,84.533352 81.5,80.8 C81.5,77.333316 82.033328,74.033349 83.1,70.9 C84.166672,67.766651 85.69999,65.0166785 87.7,62.65 C89.70001,60.2833215 92.1499855,58.400007 95.05,57 C97.9500145,55.599993 101.233315,54.9 104.9,54.9 C108.166683,54.9 111.166653,55.5833265 113.9,56.95 C116.633347,58.3166735 118.733326,60.466652 120.2,63.4 L120.4,63.4 L120.4,56.3 L131.8,56.3 L131.8,105.3 Z M106.5,99 C109.033346,99 111.183324,98.4833385 112.95,97.45 C114.716676,96.4166615 116.149994,95.0500085 117.25,93.35 C118.350006,91.6499915 119.149998,89.7166775 119.65,87.55 C120.150002,85.3833225 120.4,83.200011 120.4,81 C120.4,78.799989 120.133336,76.666677 119.6,74.6 C119.066664,72.533323 118.250006,70.700008 117.15,69.1 C116.049994,67.499992 114.616675,66.233338 112.85,65.3 C111.083325,64.366662 108.966679,63.9 106.5,63.9 C103.966654,63.9 101.833342,64.433328 100.1,65.5 C98.366658,66.566672 96.966672,67.9499915 95.9,69.65 C94.833328,71.3500085 94.066669,73.2833225 93.6,75.45 C93.133331,77.6166775 92.9,79.766656 92.9,81.9 C92.9,84.033344 93.166664,86.1166565 93.7,88.15 C94.233336,90.1833435 95.0499945,91.999992 96.15,93.6 C97.2500055,95.200008 98.6499915,96.499995 100.35,97.5 C102.050009,98.500005 104.099988,99 106.5,99 L106.5,99 Z" id="g-copy-13" fill="#FFFFFF" sketch:type="MSShapeGroup"></path>
        </g>
    </g>
</svg>