<?xml version="1.0" encoding="UTF-8" standalone="no"?>
<svg width="224px" height="110px" viewBox="0 0 224 110" version="1.1" xmlns="http://www.w3.org/2000/svg" xmlns:xlink="http://www.w3.org/1999/xlink" xmlns:sketch="http://www.bohemiancoding.com/sketch/ns">
    <!-- Generator: Sketch Beta 3.4 (15575) - http://www.bohemiancoding.com/sketch -->
    <title>delorean</title>
    <desc>Created with Sketch Beta.</desc>
    <defs></defs>
    <g id="Illustrations" stroke="none" stroke-width="1" fill="none" fill-rule="evenodd" sketch:type="MSPage">
        <g id="Delorean" sketch:type="MSArtboardGroup" transform="translate(-12.000000, -46.000000)">
            <g id="delorean" sketch:type="MSLayerGroup" transform="translate(12.000000, 47.000000)">
                <path d="M26.5,54.5 L10.4884618,52.8145749" id="Line" stroke="#51A601" stroke-width="7" stroke-linecap="round" sketch:type="MSShapeGroup"></path>
                <path d="M211.5,56.5 L199.488462,56.8145749" id="Line-Copy-3" stroke="#51A601" stroke-width="7" stroke-linecap="round" sketch:type="MSShapeGroup"></path>
                <path d="M28.0142941,52.2561388 L9,50 L5,37 L10,23 L72,9 L114,10 L147,24 L215,32 L220,46 L214,56 L196.997346,56.3208048 C196.999113,56.2140816 197,56.1071444 197,56 C197,45.5065898 188.49341,37 178,37 C167.50659,37 159,45.5065898 159,56 C159,56.3354345 159.008692,56.6688389 159.025864,57 L67.9946238,57 L65.6359641,56.7201335 C65.874773,55.5171008 66,54.2731746 66,53 C66,42.5065898 57.4934102,34 47,34 C36.7556922,34 28.4049945,42.1075086 28.0142941,52.2561388 Z M79,15.997152 C79,14.3418707 80.3328403,13.0392012 82.0023584,13.0883047 L109.997642,13.9116953 C111.655798,13.9604647 114.230294,14.5467973 115.737489,15.216662 L137.262511,24.783338 C138.774384,25.4552819 138.654836,25.9779481 136.995807,25.9507509 L82.004193,25.0492491 C80.345023,25.0220496 79,23.6583772 79,22.002848 L79,15.997152 Z M22.5526475,21.8947051 C22.7997135,21.4005731 23.4415441,20.9063391 23.9876245,20.7905039 L55.0123755,14.2094961 C55.5578255,14.0937946 56.4463114,14 56.9975446,14 L64.0024554,14 C64.553384,14 65,14.4463114 65,14.9975446 L65,22.0024554 C65,22.553384 64.5461844,23 64.0003895,23 L22.9996105,23 C22.4475409,23 22.2023649,22.5952702 22.4473525,22.1052949 L22.5526475,21.8947051 Z" id="body" stroke="#51A601" stroke-width="3" stroke-linecap="round" stroke-linejoin="round" fill-opacity="0.300000012" fill="#51A601" sketch:type="MSShapeGroup"></path>
                <path d="M152,26 L146,35 L52,34 L29,21 L68,10 L114,11 L147,24 L152,26 Z M155,26 C154,27 149,35 149,35 L162,27 C162,27 156,25 155,26 Z" id="highlight" opacity="0.4" fill="#FFFFFF" sketch:type="MSShapeGroup"></path>
                <path d="M79,15.997152 C79,14.3418707 80.3328403,13.0392012 82.0023584,13.0883047 L109.997642,13.9116953 C111.655798,13.9604647 114.230294,14.5467973 115.737489,15.216662 L137.262511,24.783338 C138.774384,25.4552819 138.654836,25.9779481 136.995807,25.9507509 L82.004193,25.0492491 C80.345023,25.0220496 79,23.6583772 79,22.002848 L79,15.997152 Z" id="window" stroke="#51A601" stroke-width="3" stroke-linecap="round" stroke-linejoin="round" sketch:type="MSShapeGroup"></path>
                <path d="M28.0142941,52.2561388 L9,50 L5,37 L10,23 L72,9 L114,10 L147,24 L215,32 L220,46 L214,56 L196.997346,56.3208048 C196.999113,56.2140816 197,56.1071444 197,56 C197,45.5065898 188.49341,37 178,37 C167.50659,37 159,45.5065898 159,56 C159,56.3354345 159.008692,56.6688389 159.025864,57 L67.9946238,57 L65.6359641,56.7201335 C65.874773,55.5171008 66,54.2731746 66,53 C66,42.5065898 57.4934102,34 47,34 C36.7556922,34 28.4049945,42.1075086 28.0142941,52.2561388 Z M79,15.997152 C79,14.3418707 80.3328403,13.0392012 82.0023584,13.0883047 L109.997642,13.9116953 C111.655798,13.9604647 114.230294,14.5467973 115.737489,15.216662 L137.262511,24.783338 C138.774384,25.4552819 138.654836,25.9779481 136.995807,25.9507509 L82.004193,25.0492491 C80.345023,25.0220496 79,23.6583772 79,22.002848 L79,15.997152 Z M22.5526475,21.8947051 C22.7997135,21.4005731 23.4415441,20.9063391 23.9876245,20.7905039 L55.0123755,14.2094961 C55.5578255,14.0937946 56.4463114,14 56.9975446,14 L64.0024554,14 C64.553384,14 65,14.4463114 65,14.9975446 L65,22.0024554 C65,22.553384 64.5461844,23 64.0003895,23 L22.9996105,23 C22.4475409,23 22.2023649,22.5952702 22.4473525,22.1052949 L22.5526475,21.8947051 Z" id="body-copy" stroke="#51A601" stroke-width="3" stroke-linecap="round" stroke-linejoin="round" sketch:type="MSShapeGroup"></path>
                <path d="M77.5,3.5 L77.5,5.5" id="Line" stroke="#51A601" stroke-width="3" stroke-linecap="square" sketch:type="MSShapeGroup"></path>
                <rect id="Rectangle-31" stroke="#51A601" stroke-width="2" stroke-linejoin="round" fill-opacity="0.300000012" fill="#51A601" sketch:type="MSShapeGroup" x="73" y="6" width="10" height="3"></rect>
                <rect id="Rectangle-32" stroke="#51A601" stroke-width="2" fill-opacity="0.300000012" fill="#51A601" sketch:type="MSShapeGroup" x="72" y="0" width="13" height="3" rx="2"></rect>
                <path d="M74.5,38.5 L160.5,39.5" id="Line" stroke="#51A601" stroke-width="3" stroke-linecap="round" sketch:type="MSShapeGroup"></path>
                <path d="M36,17 L14,6 L10,16 L10,23 L36,17 Z" id="Path-49" stroke="#51A601" stroke-linejoin="round" fill="#51A601" sketch:type="MSShapeGroup"></path>
                <path d="M26,16 C26,16 30,10 44,15" id="Path-50" stroke="#51A601" stroke-width="2" stroke-linecap="round" stroke-linejoin="round" sketch:type="MSShapeGroup"></path>
                <path d="M45,19 C45,19 45,18 47,18 C49,18 49,19 49,19 L49,23 L45,23 L45,19 Z" id="Rectangle-23" stroke="#51A601" fill-opacity="0.300000012" fill="#51A601" sketch:type="MSShapeGroup"></path>
                <path d="M51,19 C51,19 51,18 53,18 C55,18 55,19 55,19 L55,23 L51,23 L51,19 Z" id="Rectangle-23-Copy" stroke="#51A601" fill-opacity="0.300000012" fill="#51A601" sketch:type="MSShapeGroup"></path>
                <path d="M57,19 C57,19 57,18 59,18 C61,18 61,19 61,19 L61,23 L57,23 L57,19 Z" id="Rectangle-23-Copy-2" stroke="#51A601" fill-opacity="0.300000012" fill="#51A601" sketch:type="MSShapeGroup"></path>
                <path d="M138.59774,25.2772075 C138.381786,24.7650203 137.796989,24.1654468 137.29897,23.9413581 L127.736441,19.6385973 C126.225146,18.9585742 125,19.7570484 125,21.4045144 L125,26.2686399 C125,27.3701545 125.895895,28.2631085 127.003638,28.2631084 L136.850212,28.2631084 C138.51064,28.2631084 139.334625,27.0249165 138.692841,25.5027633 L138.59774,25.2772075 Z" id="Path-52" fill="#51A601" sketch:type="MSShapeGroup"></path>
                <path d="M55,28 C55,28 70,32 70.7328767,45.4615385 C70.8773527,48.1152854 72.6917808,51 75.630137,51 L146.089041,51 C150.006849,51 152.945205,50.1153846 155.883562,43.9230769 C158.821918,37.7307692 168.678082,31.6538462 176.513699,31.6538462 C184.349315,31.6538462 188.267123,32.5384615 193.164384,33.4230769 C198.061644,34.3076923 202.11355,36.6110181 202.11355,36.6110181 C202.603123,36.8683303 203,37.5151518 203,38.0802285 L203,39.7307692" id="Path-53" stroke="#51A601" stroke-width="5" stroke-linecap="round" sketch:type="MSShapeGroup"></path>
                <circle id="Oval-54" fill="#51A601" sketch:type="MSShapeGroup" cx="81.5" cy="30.5" r="1.5"></circle>
                <rect id="Rectangle-27" stroke="#51A601" stroke-width="3" fill="#51A601" sketch:type="MSShapeGroup" x="199" y="39" width="9" height="10" rx="2"></rect>
                <rect id="Rectangle-27-Copy" stroke="#51A601" stroke-width="3" fill="#51A601" sketch:type="MSShapeGroup" x="205" y="40" width="19" height="9" rx="2"></rect>
                <rect id="Rectangle-27-Copy-2" stroke="#51A601" stroke-width="3" fill="#51A601" sketch:type="MSShapeGroup" x="0" y="34" width="19" height="9" rx="2"></rect>
                <path d="M27,17.0093689 C27,16.4519098 27.4426603,16 27.9989566,16 L29.0010434,16 C29.5527519,16 30,16.4426603 30,16.9989566 L30,18.0010434 C30,18.5527519 29.5828629,19.1390457 29.0507812,19.3164062 L27.9492188,19.6835938 C27.4249797,19.8583401 27,19.5566468 27,18.9906311 L27,17.0093689 Z" id="Rectangle-22" stroke="#FFFFFF" opacity="0.5" fill="#FFFFFF" sketch:type="MSShapeGroup"></path>
                <rect id="Rectangle-29" fill="#51A601" sketch:type="MSShapeGroup" x="27" y="59" width="35" height="12" rx="3"></rect>
                <g id="Group" transform="translate(47.000000, 48.500000) rotate(14.000000) translate(-47.000000, -48.500000) translate(43.000000, 40.000000)" fill="#51A601" sketch:type="MSShapeGroup">
                    <path d="M0.210526316,13.9541667 L7.78947368,12.2541667" id="Line-Copy" stroke="#51A601" stroke-width="1.82363734" stroke-linecap="round"></path>
                    <path d="M0.210526316,11.1208333 L7.78947368,9.42083333" id="Line-Copy-2" stroke="#51A601" stroke-width="1.82363734" stroke-linecap="round"></path>
                    <path d="M0.210526316,16.7875 L7.78947368,15.0875" id="Line" stroke="#51A601" stroke-width="1.82363734" stroke-linecap="round"></path>
                    <path d="M7.63636364,3.56246278 C7.63636364,1.59496891 6.00830818,0 4,0 C1.99169182,0 0.363636364,1.59496891 0.363636364,3.56246278 L0.363636364,8.01052972 C0.363636364,8.33794596 0.630097585,8.55490046 0.95879416,8.48781368 L7.04120584,7.24639692 C7.36014488,7.18130164 7.63636364,6.85436082 7.63636364,6.5206023 L7.63636364,3.56246278 Z M4,4.74995037 C4.66943606,4.74995037 5.21212121,4.21829406 5.21212121,3.56246278 C5.21212121,2.90663149 4.66943606,2.37497518 4,2.37497518 C3.33056394,2.37497518 2.78787879,2.90663149 2.78787879,3.56246278 C2.78787879,4.21829406 3.33056394,4.74995037 4,4.74995037 Z" id="Oval-23"></path>
                </g>
                <g id="Group-Copy" transform="translate(174.000000, 43.000000)" fill="#51A601" sketch:type="MSShapeGroup">
                    <path d="M0.210526316,13.9541667 L7.78947368,12.2541667" id="Line-Copy" stroke="#51A601" stroke-width="1.82363734" stroke-linecap="round"></path>
                    <path d="M0.210526316,11.1208333 L7.78947368,9.42083333" id="Line-Copy-2" stroke="#51A601" stroke-width="1.82363734" stroke-linecap="round"></path>
                    <path d="M0.210526316,16.7875 L7.78947368,15.0875" id="Line" stroke="#51A601" stroke-width="1.82363734" stroke-linecap="round"></path>
                    <path d="M7.63636364,3.56246278 C7.63636364,1.59496891 6.00830818,0 4,0 C1.99169182,0 0.363636364,1.59496891 0.363636364,3.56246278 L0.363636364,8.01052972 C0.363636364,8.33794596 0.630097585,8.55490046 0.95879416,8.48781368 L7.04120584,7.24639692 C7.36014488,7.18130164 7.63636364,6.85436082 7.63636364,6.5206023 L7.63636364,3.56246278 Z M4,4.74995037 C4.66943606,4.74995037 5.21212121,4.21829406 5.21212121,3.56246278 C5.21212121,2.90663149 4.66943606,2.37497518 4,2.37497518 C3.33056394,2.37497518 2.78787879,2.90663149 2.78787879,3.56246278 C2.78787879,4.21829406 3.33056394,4.74995037 4,4.74995037 Z" id="Oval-23"></path>
                </g>
                <rect id="Rectangle-29-Copy" fill="#51A601" sketch:type="MSShapeGroup" x="161.5" y="59" width="35" height="12" rx="3"></rect>
                <path d="M66.9855987,7.77369568 C66.967115,8.4206249 66.933701,9.14459567 66.8816445,9.92544297 C66.7334617,12.1481858 66.4672275,14.3668041 66.058258,16.4116516 C65.1785399,20.8102417 60.5002278,24 52,24 L30,24 C19.2331238,24 13,31 13,56 L19,57 C19,35 23.153973,30 30,30 L52,30 C63.1664389,30 70.453039,25.0318636 71.941742,17.5883484 C72.4077725,15.2581959 72.7040383,12.7893142 72.8683555,10.324557 C72.925674,9.46477933 72.9625725,8.6653126 72.9831513,7.94505432 C72.9957146,7.50533744 73,7.18393235 73,7 L67,7 C67,7.12856765 66.9964729,7.39310006 66.9855987,7.77369568 Z" id="Shape" stroke="#51A601" stroke-width="3" stroke-linejoin="round" fill="#CAE4B2" sketch:type="MSShapeGroup"></path>
                <path d="M121,54.5 L121,47.5" id="Line-Copy-7" stroke="#CAE4B2" stroke-width="2" stroke-linecap="square" sketch:type="MSShapeGroup"></path>
                <path d="M158,47 L152,43.5" id="Line-Copy-8" stroke="#CAE4B2" stroke-width="2" stroke-linecap="square" sketch:type="MSShapeGroup"></path>
                <path d="M171,34.75 L169,30.25" id="Line-Copy-9" stroke="#CAE4B2" stroke-width="2" stroke-linecap="square" sketch:type="MSShapeGroup"></path>
                <path d="M13.5,6.5 L17.5,8.5" id="Line" stroke="#51A601" stroke-width="2" stroke-linecap="round" stroke-linejoin="round" sketch:type="MSShapeGroup"></path>
                <path d="M11.5,10.5 L15.5,12.5" id="Line-Copy" stroke="#51A601" stroke-width="2" stroke-linecap="round" stroke-linejoin="round" sketch:type="MSShapeGroup"></path>
                <path d="M10,15 L13.5,16.5" id="Line-Copy-2" stroke="#51A601" stroke-width="2" stroke-linecap="round" stroke-linejoin="round" sketch:type="MSShapeGroup"></path>
                <path d="M67.5,59 L156.5,59" id="Line" stroke="#51A601" stroke-width="8" stroke-linecap="round" stroke-linejoin="round" sketch:type="MSShapeGroup"></path>
                <path d="M85.5,59.5 L118.560001,59.5" id="Line" stroke="#CAE4B2" stroke-width="3" stroke-linecap="round" sketch:type="MSShapeGroup"></path>
                <path d="M80,53.5 L80,46.5" id="Line" stroke="#CAE4B2" stroke-width="2" stroke-linecap="square" sketch:type="MSShapeGroup"></path>
                <path d="M183,84 C183,79.581722 179.418278,76 175,76" id="Oval-61" stroke="#51A601" stroke-width="6" stroke-linecap="round" opacity="0.1" sketch:type="MSShapeGroup" transform="translate(179.000000, 80.000000) scale(1, -1) rotate(-45.000000) translate(-179.000000, -80.000000) "></path>
                <path d="M190.5,89 C184.148725,95.6666667 173.851275,95.6666667 167.5,89" id="Oval-61-Copy" stroke="#51A601" stroke-width="6" stroke-linecap="round" opacity="0.1" sketch:type="MSShapeGroup"></path>
                <path d="M197,98.2 C187.058875,107.8 170.941125,107.8 161,98.2" id="Oval-61-Copy-2" stroke="#51A601" stroke-width="6" stroke-linecap="round" opacity="0.1" sketch:type="MSShapeGroup"></path>
                <path d="M48,84 C48,79.581722 44.418278,76 40,76" id="Oval-61-Copy-5" stroke="#51A601" stroke-width="6" stroke-linecap="round" opacity="0.1" sketch:type="MSShapeGroup" transform="translate(44.000000, 80.000000) scale(1, -1) rotate(-45.000000) translate(-44.000000, -80.000000) "></path>
                <path d="M55.5,89 C49.1487254,95.6666667 38.8512746,95.6666667 32.5,89" id="Oval-61-Copy-3" stroke="#51A601" stroke-width="6" stroke-linecap="round" opacity="0.1" sketch:type="MSShapeGroup"></path>
                <path d="M62,98.2 C52.0588745,107.8 35.9411255,107.8 26,98.2" id="Oval-61-Copy-4" stroke="#51A601" stroke-width="6" stroke-linecap="round" opacity="0.1" sketch:type="MSShapeGroup"></path>
                <path d="M65.5,38.5 L70.5,34.5" id="Line" stroke="#CAE4B2" stroke-width="2" stroke-linecap="square" sketch:type="MSShapeGroup"></path>
                <path d="M61,11 C61,11 33,4 48,14" id="Path-79" stroke="#51A601" stroke-width="2" sketch:type="MSShapeGroup"></path>
                <circle id="Oval-63" fill="#CAE4B2" sketch:type="MSShapeGroup" cx="81.5" cy="59.5" r="1.5"></circle>
            </g>
        </g>
    </g>
</svg>