<?xml version="1.0" encoding="UTF-8" standalone="no"?>
<svg width="234px" height="86px" viewBox="0 0 234 86" version="1.1" xmlns="http://www.w3.org/2000/svg" xmlns:xlink="http://www.w3.org/1999/xlink" xmlns:sketch="http://www.bohemiancoding.com/sketch/ns">
    <!-- Generator: Sketch Beta 3.4 (15575) - http://www.bohemiancoding.com/sketch -->
    <title>Dragula</title>
    <desc>Created with Sketch Beta.</desc>
    <defs></defs>
    <g id="Illustrations" stroke="none" stroke-width="1" fill="none" fill-rule="evenodd" sketch:type="MSPage">
        <g id="Dragula" sketch:type="MSArtboardGroup" transform="translate(-8.000000, -44.000000)">
            <g sketch:type="MSLayerGroup" transform="translate(10.000000, 46.000000)">
                <circle id="Oval-48" stroke="#51A601" stroke-width="3" fill-opacity="0.3" fill="#51A601" sketch:type="MSShapeGroup" cx="181" cy="34" r="6"></circle>
                <path d="M181,31 C179.343146,31 178,32.3431458 178,34" id="Oval-48-Copy" stroke="#FFFFFF" stroke-width="3" stroke-linecap="round" opacity="0.5" sketch:type="MSShapeGroup"></path>
                <path d="M189,48 C189,43.581722 185.418278,40 181,40 C176.581722,40 173,43.581722 173,48 C173,52.418278 189,52.418278 189,48 Z" id="Oval-49" stroke="#51A601" stroke-width="3" sketch:type="MSShapeGroup"></path>
                <rect id="Rectangle-20" stroke="#51A601" stroke-width="3" stroke-linecap="round" stroke-linejoin="round" fill-opacity="0.699999988" fill="#51A601" sketch:type="MSShapeGroup" x="194" y="32" width="8" height="15"></rect>
                <path d="M198,30.5 L198,23.5" id="Line" stroke="#51A601" stroke-width="3" stroke-linecap="round" sketch:type="MSShapeGroup"></path>
                <circle id="Oval-50" fill="#51A601" sketch:type="MSShapeGroup" cx="198" cy="27" r="3"></circle>
                <rect id="Rectangle-14" stroke="#51A601" stroke-width="3" fill-opacity="0.3" fill="#51A601" sketch:type="MSShapeGroup" x="12" y="47" width="153" height="7" rx="2"></rect>
                <path d="M16.8855076,25.6717387 C17.5010247,24.7484629 18.9003983,24 19.9932203,24 L157.00678,24 C158.107605,24 159.501237,24.751855 160.114492,25.6717387 L163.885508,31.3282613 C164.501025,32.2515371 164.101489,33 163.009557,33 L13.9904435,33 C12.8911519,33 12.5012366,32.248145 13.1144924,31.3282613 L16.8855076,25.6717387 Z" id="Rectangle-14-Copy" stroke="#51A601" stroke-width="3" fill-opacity="0.3" fill="#51A601" sketch:type="MSShapeGroup"></path>
                <path d="M24.5,23.5 L19.5,5.5 C19.5,5.5 70,-3 88,24" id="Line" stroke="#51A601" stroke-width="3" stroke-linecap="round" stroke-linejoin="round" fill-opacity="0.1" fill="#51A601" sketch:type="MSShapeGroup"></path>
                <rect id="Rectangle-15" stroke="#51A601" stroke-width="3" fill-opacity="0.3" fill="#51A601" sketch:type="MSShapeGroup" x="15" y="33" width="147" height="14"></rect>
                <g id="Group" transform="translate(0.000000, 26.500000)" sketch:type="MSShapeGroup" fill="#51A601">
                    <rect id="Rectangle-17" stroke="#51A601" stroke-width="3" fill-opacity="0.3" x="0" y="9" width="9" height="9" rx="2"></rect>
                    <circle id="Oval-34" cx="4.5" cy="13.5" r="2"></circle>
                    <path d="M4.5,9.5 L4.5,0.5" id="Line" stroke="#51A601" stroke-width="3" fill-opacity="0.3"></path>
                    <path d="M1.5,3.5 L7.5,3.5" id="Line" stroke="#51A601" stroke-width="3" fill-opacity="0.3"></path>
                </g>
                <path d="M9.5,40.5 L14.5,40.5" id="Line" stroke="#51A601" stroke-width="5" fill-opacity="0.3" fill="#51A601" sketch:type="MSShapeGroup"></path>
                <circle id="Oval-35-Copy" fill="#FFFFFF" sketch:type="MSShapeGroup" transform="translate(61.000000, 51.112043) rotate(-20.000000) translate(-61.000000, -51.112043) " cx="61" cy="51.1120426" r="28"></circle>
                <rect id="Rectangle-18" opacity="0.5" fill="#51A601" sketch:type="MSShapeGroup" x="109" y="16" width="29" height="5"></rect>
                <rect id="Rectangle-19" fill="#51A601" sketch:type="MSShapeGroup" x="163" y="45" width="36" height="8"></rect>
                <path d="M113,56.5 L113,12.5" id="Line" stroke="#51A601" stroke-width="4" stroke-linecap="round" sketch:type="MSShapeGroup"></path>
                <path d="M120,56.5 L120,8.5" id="Line-Copy" stroke="#51A601" stroke-width="4" stroke-linecap="round" sketch:type="MSShapeGroup"></path>
                <path d="M127,56.5 L127,4.5" id="Line-Copy-2" stroke="#51A601" stroke-width="4" stroke-linecap="round" sketch:type="MSShapeGroup"></path>
                <path d="M134,56.5 L134,0.5" id="Line-Copy-3" stroke="#51A601" stroke-width="4" stroke-linecap="round" sketch:type="MSShapeGroup"></path>
                <g id="Oval-50-+-Line" transform="translate(193.000000, 41.000000)" stroke="#51A601" sketch:type="MSShapeGroup">
                    <path d="M19,36 C28.3888407,36 36,28.3888407 36,19 C36,9.61115925 28.3888407,2 19,2 C9.61115925,2 2,9.61115925 2,19 C2,28.3888407 9.61115925,36 19,36 Z M19,24 C21.209139,24 23,22.209139 23,20 C23,17.790861 21.209139,16 19,16 C16.790861,16 15,17.790861 15,20 C15,22.209139 16.790861,24 19,24 Z" id="Oval-50" stroke-width="4.72222222" stroke-linecap="round" stroke-linejoin="round" fill="#FFFFFF"></path>
                    <path d="M12.2271673,5.67862424 L31.9838714,27.3689534 M22.9096978,4.77929752 L24.1019364,34.0944182 M31.6829424,10.9627164 L13.7528538,34.1857579 M34.4418024,21.3355905 L5.77907433,27.6002336 M29.8953766,31.0443367 L3.91161805,17.4192852 M20.1709881,35.5461248 L9.02428851,8.40669177 M9.81878642,32.734518 L18.7248104,4.77954581 M3.68268173,23.9250986 L28.4742017,8.23502928 M4.63382563,13.2398916 L33.7106138,17.1562831" id="Line" stroke-width="1.88630992" stroke-linecap="square"></path>
                </g>
                <path d="M66.5,16.5 L60.7289585,23.9199105" id="Line" stroke="#51A601" stroke-width="4" stroke-linecap="round" sketch:type="MSShapeGroup"></path>
                <path d="M19.5,29 L96.5299988,29" id="Line" stroke="#FFFFFF" stroke-width="2" stroke-linecap="round" stroke-linejoin="round" stroke-dasharray="3" opacity="0.5" sketch:type="MSShapeGroup"></path>
                <path d="M23.5,41.5 L36.5,41.5" id="Line-Copy-6" stroke="#51A601" stroke-width="3" stroke-linecap="round" stroke-linejoin="round" opacity="0.6" sketch:type="MSShapeGroup"></path>
                <g id="Oval-35-+-Triangle-1-+-Oval-42" transform="translate(25.000000, 15.112043)" fill="#51A601" sketch:type="MSShapeGroup">
                    <path d="M36,64 C51.463973,64 64,51.463973 64,36 C64,20.536027 51.463973,8 36,8 C20.536027,8 8,20.536027 8,36 C8,51.463973 20.536027,64 36,64 Z M36,48 C42.627417,48 48,42.627417 48,36 C48,29.372583 42.627417,24 36,24 C29.372583,24 24,29.372583 24,36 C24,42.627417 29.372583,48 36,48 Z" id="Oval-35" stroke="#51A601" stroke-width="3" stroke-linecap="round" stroke-linejoin="round" fill-opacity="0.699999988" transform="translate(36.000000, 36.000000) rotate(-20.000000) translate(-36.000000, -36.000000) "></path>
                    <path d="M40.7015357,36.6623915 L43.417043,36.5411684 C44.5168085,36.4920738 45.1299213,37.3091737 44.7903541,38.354254 L44.4279161,39.4697234 C44.0866094,40.5201575 43.1036331,40.8087634 42.2511792,40.1293283 L40.1255407,38.4351217 C40.2811933,38.1701309 40.4107259,37.8843125 40.5096118,37.5799728 C40.6084978,37.2756332 40.6717036,36.9682638 40.7015357,36.6623915 Z M39.4817558,32.9082952 L41.7499005,31.4102315 C42.6595044,30.8094566 42.6887803,29.7854065 41.7952276,29.1362025 L40.8463527,28.4468045 C39.9573543,27.8009093 38.9907838,28.1315165 38.6976294,29.1926268 L37.9737814,31.8126877 C38.2554647,31.9355794 38.5282587,32.090674 38.7871454,32.2787663 C39.0460322,32.4668585 39.2778339,32.6783742 39.4817558,32.9082952 Z M32.5185166,32.9082952 L30.2503719,31.4102315 C29.3317858,30.803524 29.3160464,29.7820977 30.2050448,29.1362025 L31.1539198,28.4468045 C32.0474724,27.7976005 33.0123552,28.1418924 33.3026431,29.1926268 L34.026491,31.8126877 C33.7448078,31.9355794 33.4720138,32.090674 33.213127,32.2787663 C32.9542403,32.4668585 32.7224385,32.6783742 32.5185166,32.9082952 Z M31.8747318,38.4351217 L29.7490933,40.1293283 C28.8882214,40.8154727 27.9119235,40.5148037 27.5723563,39.4697234 L27.2099183,38.354254 C26.8686116,37.3038198 27.4942178,36.4925538 28.5832295,36.5411684 L31.2987368,36.6623915 C31.3285689,36.9682638 31.3917747,37.2756332 31.4906606,37.5799728 C31.5895466,37.8843125 31.7190792,38.1701309 31.8747318,38.4351217 Z M36.9321157,40.7552808 L37.8865435,43.3004218 C38.2730816,44.3311898 37.6854357,45.1667925 36.5865732,45.1667925 L35.4136993,45.1667925 C34.3092074,45.1667925 33.7309706,44.3211106 34.1137289,43.3004218 L35.0681568,40.7552808 C35.3682773,40.8214285 35.6801346,40.8562986 36.0001362,40.8562986 C36.3201379,40.8562986 36.6319952,40.8214285 36.9321157,40.7552808 Z" id="Triangle-1" stroke="#51A601" stroke-linejoin="round" transform="translate(36.000000, 36.583396) rotate(-20.000000) translate(-36.000000, -36.583396) "></path>
                    <path d="M36,34.3849832 C36.5016289,34.3849832 36.9082795,33.9630153 36.9082795,33.4424916 C36.9082795,32.9219679 36.5016289,32.5 36,32.5 C35.4983711,32.5 35.0917205,32.9219679 35.0917205,33.4424916 C35.0917205,33.9630153 35.4983711,34.3849832 36,34.3849832 Z M37.6951125,35.6874745 C37.8501244,36.164552 38.3771016,36.4209044 38.8721491,36.2600537 C39.3671966,36.099203 39.6428499,35.5820601 39.4878381,35.1049827 C39.3328262,34.6279053 38.805849,34.3715528 38.3108015,34.5324035 C37.815754,34.6932542 37.5401007,35.2103971 37.6951125,35.6874745 Z M37.0476372,37.7949498 C36.6418109,38.0897999 36.5608501,38.6702023 36.8668063,39.0913148 C37.1727625,39.5124274 37.7497762,39.6147833 38.1556025,39.3199333 C38.5614288,39.0250832 38.6423895,38.4446808 38.3364333,38.0235683 C38.0304772,37.6024557 37.4534635,37.5000998 37.0476372,37.7949498 Z M34.9523628,37.7949498 C34.5465365,37.5000998 33.9695228,37.6024557 33.6635667,38.0235683 C33.3576105,38.4446808 33.4385712,39.0250832 33.8443975,39.3199333 C34.2502238,39.6147833 34.8272375,39.5124274 35.1331937,39.0913148 C35.4391499,38.6702023 35.3581891,38.0897999 34.9523628,37.7949498 Z M34.3048875,35.6874745 C34.4598993,35.2103971 34.184246,34.6932542 33.6891985,34.5324035 C33.194151,34.3715528 32.6671738,34.6279053 32.5121619,35.1049827 C32.3571501,35.5820601 32.6328034,36.099203 33.1278509,36.2600537 C33.6228984,36.4209044 34.1498756,36.164552 34.3048875,35.6874745 Z" id="Oval-42" transform="translate(36.000000, 36.000000) rotate(-20.000000) translate(-36.000000, -36.000000) "></path>
                </g>
                <path d="M101.5,41.5 L149.541649,41.5" id="Line" stroke="#51A601" stroke-width="3" stroke-linecap="round" stroke-linejoin="round" opacity="0.6" sketch:type="MSShapeGroup"></path>
                <path d="M16.5,81.5 L223.559998,81.5" id="Line" stroke="#51A601" stroke-width="5" stroke-linecap="round" opacity="0.1" sketch:type="MSShapeGroup"></path>
                <path d="M23.5,4.5 L28.9504672,23.5766353" id="Line" stroke="#51A601" stroke-width="3" fill-opacity="0.3" fill="#51A601" sketch:type="MSShapeGroup"></path>
                <path d="M170.5,50.5 L193.5,58.5" id="Line" stroke="#51A601" stroke-width="3" stroke-linecap="square" sketch:type="MSShapeGroup"></path>
            </g>
        </g>
    </g>
</svg>