<?xml version="1.0" encoding="UTF-8" standalone="no"?>
<svg width="81px" height="81px" viewBox="0 0 81 81" version="1.1" xmlns="http://www.w3.org/2000/svg" xmlns:xlink="http://www.w3.org/1999/xlink" xmlns:sketch="http://www.bohemiancoding.com/sketch/ns">
    <!-- Generator: Sketch 3.3.3 (12081) - http://www.bohemiancoding.com/sketch -->
    <title>logo</title>
    <desc>Created with Sketch.</desc>
    <defs></defs>
    <g id="Page-1" stroke="none" stroke-width="1" fill="none" fill-rule="evenodd" sketch:type="MSPage">
        <g id="work-copy-2" sketch:type="MSArtboardGroup" transform="translate(-250.000000, -17.000000)">
            <g id="header" sketch:type="MSLayerGroup">
                <g id="logo" transform="translate(250.000000, 17.000000)" sketch:type="MSShapeGroup">
                    <rect id="Rectangle-3-Copy-7" stroke="#FFFFFF" stroke-width="5" x="0" y="0" width="81" height="81"></rect>
                    <path d="M66.4852349,51.861745 C66.4852349,56.1020346 65.298334,59.2640835 62.9244966,61.3479866 C60.5506593,63.4318896 57.1349216,64.4738255 52.6771812,64.4738255 C51.2637513,64.4738255 49.8412823,64.3288605 48.4097315,64.0389262 C46.9781808,63.7489918 45.6734958,63.259735 44.4956376,62.5711409 C43.3177793,61.8825469 42.3302053,60.9765157 41.5328859,59.8530201 C40.7355665,58.7295246 40.2644303,57.3523571 40.1194631,55.7214765 L46.3167785,55.7214765 C46.4979875,56.5912795 46.8060381,57.2979839 47.2409396,57.8416107 C47.6758411,58.3852376 48.1922789,58.8110723 48.7902685,59.1191275 C49.388258,59.4271827 50.0496608,59.6265096 50.7744966,59.7171141 C51.4993325,59.8077186 52.2603987,59.8530201 53.0577181,59.8530201 C55.5584018,59.8530201 57.3885848,59.2369189 58.5483221,58.004698 C59.7080595,56.7724771 60.2879195,54.9966559 60.2879195,52.6771812 L60.2879195,48.3825503 L60.1791946,48.3825503 C59.3093916,49.9409474 58.1224907,51.1550292 56.6184564,52.0248322 C55.114422,52.8946352 53.4926261,53.3295302 51.7530201,53.3295302 C49.506029,53.3295302 47.5943032,52.9399368 46.0177852,52.1607383 C44.4412673,51.3815397 43.1365823,50.3124229 42.1036913,48.9533557 C41.0708002,47.5942885 40.3187943,46.0268545 39.847651,44.2510067 C39.3765077,42.4751589 39.1409396,40.5724934 39.1409396,38.542953 C39.1409396,36.6583798 39.4308696,34.864438 40.0107383,33.1610738 C40.5906069,31.4577096 41.4241556,29.9627581 42.5114094,28.6761745 C43.5986632,27.3895909 44.930529,26.3657756 46.507047,25.604698 C48.0835649,24.8436204 49.8684464,24.4630872 51.861745,24.4630872 C53.6375928,24.4630872 55.2684489,24.83456 56.7543624,25.5775168 C58.2402759,26.3204735 59.3818752,27.4892538 60.1791946,29.0838926 L60.2879195,29.0838926 L60.2879195,25.2241611 L66.4852349,25.2241611 L66.4852349,51.861745 Z M52.7315436,48.4369128 C54.1087317,48.4369128 55.277512,48.1560431 56.2379195,47.5942953 C57.1983269,47.0325475 57.9775138,46.2896019 58.5755034,45.3654362 C59.1734929,44.4412705 59.6083879,43.3902743 59.8802013,42.2124161 C60.1520148,41.0345579 60.2879195,39.847657 60.2879195,38.6516779 C60.2879195,37.4556987 60.1429545,36.2959788 59.8530201,35.1724832 C59.5630858,34.0489877 59.1191305,33.0523533 58.5211409,32.1825503 C57.9231514,31.3127473 57.1439645,30.6241636 56.183557,30.1167785 C55.2231496,29.6093934 54.0724899,29.3557047 52.7315436,29.3557047 C51.3543555,29.3557047 50.1946356,29.6456347 49.252349,30.2255034 C48.3100624,30.805372 47.5489962,31.5573779 46.9691275,32.4815436 C46.3892588,33.4057093 45.9724845,34.4567055 45.7187919,35.6345638 C45.4650994,36.812422 45.338255,37.9812023 45.338255,39.1409396 C45.338255,40.3006769 45.48322,41.4332159 45.7731544,42.5385906 C46.0630887,43.6439653 46.507044,44.6315393 47.1050336,45.5013423 C47.7030231,46.3711453 48.4640893,47.0778496 49.388255,47.6214765 C50.3124207,48.1651034 51.4268391,48.4369128 52.7315436,48.4369128 L52.7315436,48.4369128 Z" id="g-copy-13" fill="#FFFFFF"></path>
                </g>
            </g>
        </g>
    </g>
</svg>