<?xml version="1.0" encoding="UTF-8" standalone="no"?>
<svg width="199px" height="161px" viewBox="0 0 199 161" version="1.1" xmlns="http://www.w3.org/2000/svg" xmlns:xlink="http://www.w3.org/1999/xlink" xmlns:sketch="http://www.bohemiancoding.com/sketch/ns">
    <!-- Generator: Sketch Beta 3.4 (15575) - http://www.bohemiancoding.com/sketch -->
    <title>monster</title>
    <desc>Created with Sketch Beta.</desc>
    <defs></defs>
    <g id="Illustrations" stroke="none" stroke-width="1" fill="none" fill-rule="evenodd" sketch:type="MSPage">
        <g id="Monster" sketch:type="MSArtboardGroup" transform="translate(-28.000000, -6.000000)">
            <g id="monster" sketch:type="MSLayerGroup" transform="translate(31.000000, 8.000000)">
                <rect id="Rectangle-7" stroke="#51A601" stroke-width="3.72000003" fill-opacity="0.300000012" fill="#51A601" sketch:type="MSShapeGroup" x="7" y="16" width="15" height="39" rx="4.65000004"></rect>
                <path d="M165,55.5333333 L165,51.9606523 C165,39.6196245 155.058743,28.5885907 142.795582,27.3292076 C142.795582,27.3292076 137.047503,26.5735845 128.859895,25.9848111 C125.695172,14.2856827 115.508889,4.48016432 103.431762,2.5748096 C103.431762,2.5748096 92.245614,1.12359921e-15 75.9385965,0 C59.6315789,-1.49813227e-15 48.4454313,2.5748096 48.4454313,2.5748096 C33.8298126,4.76143619 22,18.7364112 22,33.5261142 L22,55.5333333 L27.5658939,55.5333333 C28.2834633,55.5333333 28.9535774,55.736866 29.5218439,56.0890705 C34.0856418,47.7877784 42.8629121,42.1686747 52.9415205,42.1686747 C67.7207896,42.1686747 79.7017544,54.2515923 79.7017544,69.1566265 C79.7017544,69.4387833 79.6974609,69.7199287 79.6889363,70 L93.5,70 L107.311064,70 C107.302539,69.7199287 107.298246,69.4387833 107.298246,69.1566265 C107.298246,54.2515923 119.27921,42.1686747 134.05848,42.1686747 C147.137775,42.1686747 158.025488,51.6317997 160.357143,64.1394144 L160.357143,59.2508211 C160.357143,57.1977093 162.020977,55.5333333 164.073629,55.5333333 L165,55.5333333 Z M99.2824574,8.23264465 C99.2824574,8.23264465 94.584001,7.16291815 87,6.53333333 L87,23.9480953 C87,25.6704347 88.3938247,27.0666667 90.1298547,27.0666667 L120.428571,27.0666667 C117.559471,17.6082666 109.176735,9.77882939 99.2824574,8.23264465 Z" id="Rectangle-5" stroke="#51A601" stroke-width="3.34799994" stroke-linecap="round" stroke-linejoin="round" fill-opacity="0.300000012" fill="#51A601" sketch:type="MSShapeGroup"></path>
                <g id="Fill-1-+-Oval-1-+-Oval-2" transform="translate(12.000000, 78.000000)" sketch:type="MSShapeGroup" fill="#51A601">
                    <path d="M73.9287451,36.1850588 C73.9287451,34.2406936 72.4123927,32.6935991 70.5048278,32.5547159 C70.3431697,31.0819077 70.0618848,29.6478576 69.7127034,28.2364165 C71.4780092,27.4644841 72.3832942,25.4749011 71.7140299,23.6435804 C71.051232,21.8090299 69.0563717,20.8659159 67.2167032,21.4085294 C66.5636048,20.0972134 65.8555425,18.8149659 65.040786,17.6070048 C66.4245788,16.2763097 66.5959364,14.1058556 65.34147,12.6168982 C64.0837704,11.1117916 61.8819879,10.9018518 60.3203712,12.0710548 C59.2728271,11.0730335 58.1541535,10.1525284 56.9837493,9.29662012 C57.882568,7.56219471 57.2941327,5.4175793 55.5805575,4.4292475 C53.8669822,3.43768586 51.7136971,3.99967845 50.6564535,5.65012796 C49.3437902,5.07844584 47.9826295,4.60365899 46.5859041,4.20315852 C46.8542564,2.25233366 45.5609921,0.421012976 43.6016966,0.0786496723 C41.639168,-0.286322528 39.7477689,1.03145321 39.3630228,2.98873775 C38.703458,2.94997964 38.0503595,2.88861263 37.3810952,2.88861263 C36.611603,2.88861263 35.8550433,2.95320948 35.0984837,3.00488696 C34.7169707,1.03791289 32.8449706,-0.286322528 30.8533435,0.0786496723 C28.8681828,0.427472661 27.5490532,2.30401114 27.8691361,4.28390459 C26.5015091,4.69086474 25.1791463,5.18503064 23.8923483,5.75348292 C22.8642032,4.00936798 20.6236227,3.41184712 18.8744827,4.4292475 C17.1124101,5.44664788 16.507809,7.69784809 17.5262547,9.45811225 L17.5359541,9.4774913 C16.4108142,10.3140205 15.3341716,11.2086869 14.3221923,12.1776396 L14.3060265,12.1614904 C12.7444098,10.8534042 10.4197672,11.0601141 9.11357022,12.6168982 C7.80414009,14.1736823 8.01106238,16.495939 9.56944589,17.8007954 L9.59207802,17.8201744 C8.82258575,18.9829177 8.14362197,20.207028 7.51962194,21.4634368 L7.4646582,21.4440577 C5.55709332,20.7528714 3.43613983,21.7347435 2.74101025,23.6435804 C2.04264752,25.5524173 3.02876156,27.6679642 4.94279277,28.3591505 L5.01068914,28.3849892 C4.68737306,29.7286037 4.42225388,31.0980569 4.26706216,32.5030384 L4.21209842,32.5030384 C2.17520711,32.5030384 0.526295093,34.150258 0.526295093,36.1850588 C0.526295093,38.2198596 2.17520711,39.8670792 4.21209842,39.8670792 L4.26706216,39.8670792 C4.42225388,41.2688309 4.68737306,42.6350542 5.01068914,43.9786687 L4.94279277,44.0045075 C3.02876156,44.6989236 2.04264752,46.8112406 2.74101025,48.7200775 C3.28418127,50.2187244 4.69707255,51.1456892 6.20372549,51.1456892 C6.62080323,51.1456892 7.04758046,51.0714028 7.4646582,50.9228301 L7.51962194,50.9002212 C8.14362197,52.1598597 8.81935259,53.38397 9.59207802,54.5467133 L9.56944589,54.5628625 C8.01106238,55.8709487 7.80414009,58.1932055 9.11357022,59.7499896 C9.8410314,60.6188172 10.8853423,61.0645355 11.9393528,61.0645355 C12.7767414,61.0645355 13.6141301,60.7803093 14.3060265,60.2021675 L14.3221923,60.1860183 C15.3341716,61.1549711 16.4108142,62.0496374 17.5359541,62.8861666 L17.5262547,62.9055457 C16.507809,64.6690397 17.1124101,66.91701 18.8744827,67.9344104 C19.4564517,68.270314 20.0901512,68.4285763 20.7141512,68.4285763 C21.9783171,68.4285763 23.2069182,67.7761481 23.8923483,66.6134049 C25.1791463,67.1818571 26.5015091,67.676023 27.8691361,68.0829832 C27.5490532,70.0628766 28.8681828,71.942645 30.8533435,72.2914679 C31.0699653,72.330226 31.2865871,72.3463753 31.4967425,72.3463753 C33.2361831,72.3463753 34.7654681,71.1158053 35.1017169,69.3620008 C35.8582765,69.4136783 36.611603,69.4782751 37.3810952,69.4782751 C38.0503595,69.4782751 38.703458,69.4169081 39.3597897,69.37815 C39.7057379,71.122265 41.2253234,72.3463753 42.9582976,72.3463753 C43.1716863,72.3463753 43.3850749,72.330226 43.6016966,72.2914679 C45.5609921,71.9458748 46.8574896,70.1113243 46.5859041,68.1604994 C47.9793964,67.7632288 49.3340908,67.2884419 50.6467541,66.7199897 C51.3451168,67.8084466 52.5219873,68.4285763 53.740889,68.4285763 C54.3681222,68.4285763 55.0018217,68.270314 55.5805575,67.9344104 C57.2908995,66.9493085 57.882568,64.8046931 56.9837493,63.0670378 C58.1541535,62.2143594 59.269594,61.2938543 60.3171381,60.2990628 C60.9767029,60.7932287 61.742962,61.0645355 62.5156874,61.0645355 C63.5696978,61.0645355 64.6140088,60.6188172 65.34147,59.7499896 C66.5959364,58.2578023 66.4245788,56.0873482 65.040786,54.7566531 C65.8555425,53.5519218 66.5603716,52.2729042 67.2134701,50.9615882 C67.5594183,51.0617133 67.9085997,51.1456892 68.2545479,51.1456892 C69.7579676,51.1456892 71.1708589,50.2187244 71.7140299,48.7200775 C72.3832942,46.8887568 71.4812424,44.9024037 69.7159365,44.1272415 C70.0618848,42.7190302 70.3431697,41.2849801 70.5048278,39.8121719 C72.4123927,39.6732887 73.9287451,38.1261941 73.9287451,36.1850588 L73.9287451,36.1850588 Z M37.2291367,47.4636688 C30.9923695,47.4636688 25.9357059,42.4121951 25.9357059,36.181829 C25.9357059,29.9514628 30.9923695,24.903219 37.2291367,24.903219 C43.4659039,24.903219 48.5193342,29.9514628 48.5193342,36.181829 C48.5193342,42.4121951 43.4659039,47.4636688 37.2291367,47.4636688 L37.2291367,47.4636688 Z" id="Fill-1" stroke="#51A601" stroke-width="2.79000002" stroke-linecap="round" stroke-linejoin="round" fill-opacity="0.699999988"></path>
                    <ellipse id="Oval-1" stroke="#51A601" stroke-width="2.79000002" fill-opacity="0.6" cx="37.2275201" cy="36.4279241" rx="4.09035" ry="4.0861519"></ellipse>
                    <path d="M37.2275201,29.9365547 C37.7383835,29.9365547 38.1525201,29.5228431 38.1525201,29.0125041 C38.1525201,28.502165 37.7383835,28.0884534 37.2275201,28.0884534 C36.7166567,28.0884534 36.3025201,28.502165 36.3025201,29.0125041 C36.3025201,29.5228431 36.7166567,29.9365547 37.2275201,29.9365547 Z M41.3901801,31.4498622 C41.7815242,31.7782388 42.3646999,31.7275193 42.6927395,31.3365768 C43.0207791,30.9456344 42.9694608,30.3625111 42.5781167,30.0341345 C42.1867726,29.7057578 41.6035969,29.7564774 41.2755573,30.1474198 C40.9475177,30.5383622 40.998836,31.1214855 41.3901801,31.4498622 Z M43.6050852,35.2816912 C43.6937957,35.7847934 44.1731362,36.1207981 44.675722,36.0321786 C45.1783079,35.9435592 45.5138202,35.463874 45.4251097,34.9607718 C45.3363992,34.4576695 44.8570588,34.1216648 44.3544729,34.2102843 C43.851887,34.2989037 43.5163747,34.7785889 43.6050852,35.2816912 Z M42.8358568,39.6390863 C42.5804251,40.081507 42.7316415,40.6470156 43.1736081,40.9021852 C43.6155747,41.1573547 44.1809277,41.0055577 44.4363594,40.563137 C44.6917911,40.1207163 44.5405747,39.5552077 44.0986081,39.3000382 C43.6566415,39.0448686 43.0912885,39.1966657 42.8358568,39.6390863 Z M39.4424252,42.4831741 C38.9623707,42.6578996 38.7147072,43.1883044 38.8892535,43.6678662 C39.0637997,44.1474281 39.5944585,44.3945467 40.0745131,44.2198212 C40.5545676,44.0450956 40.8022311,43.5146908 40.6276848,43.035129 C40.4531386,42.5555671 39.9224798,42.3084485 39.4424252,42.4831741 Z M35.012615,42.4831741 C34.5325604,42.3084485 34.0019016,42.5555671 33.8273554,43.035129 C33.6528091,43.5146908 33.9004725,44.0450956 34.3805271,44.2198212 C34.8605817,44.3945467 35.3912405,44.1474281 35.5657867,43.6678662 C35.7403329,43.1883044 35.4926695,42.6578996 35.012615,42.4831741 Z M31.6191834,39.6390863 C31.3637517,39.1966657 30.7983987,39.0448686 30.3564321,39.3000382 C29.9144655,39.5552077 29.7632491,40.1207163 30.0186808,40.563137 C30.2741125,41.0055577 30.8394655,41.1573547 31.2814321,40.9021852 C31.7233987,40.6470156 31.8746151,40.081507 31.6191834,39.6390863 Z M30.8499549,35.2816912 C30.9386654,34.7785889 30.6031532,34.2989037 30.1005673,34.2102843 C29.5979814,34.1216648 29.118641,34.4576695 29.0299305,34.9607718 C28.94122,35.463874 29.2767323,35.9435592 29.7793182,36.0321786 C30.281904,36.1207981 30.7612445,35.7847934 30.8499549,35.2816912 Z M33.0648601,31.4498622 C33.4562041,31.1214855 33.5075225,30.5383622 33.1794829,30.1474198 C32.8514433,29.7564774 32.2682675,29.7057578 31.8769235,30.0341345 C31.4855794,30.3625111 31.434261,30.9456344 31.7623007,31.3365768 C32.0903403,31.7275193 32.673516,31.7782388 33.0648601,31.4498622 Z" id="Oval-2"></path>
                </g>
                <g id="Group" transform="translate(44.000000, 51.000000)" fill="#51A601" sketch:type="MSShapeGroup">
                    <path d="M0.263157895,18.0583333 L9.73684211,15.8583333" id="Line-Copy" stroke="#51A601" stroke-width="2.42283249" stroke-linecap="round"></path>
                    <path d="M0.263157895,14.3916667 L9.73684211,12.1916667" id="Line-Copy-2" stroke="#51A601" stroke-width="2.42283249" stroke-linecap="round"></path>
                    <path d="M0.263157895,21.725 L9.73684211,19.525" id="Line" stroke="#51A601" stroke-width="2.42283249" stroke-linecap="round"></path>
                    <path d="M9.54545455,4.61024595 C9.54545455,2.06407742 7.51038523,0 5,0 C2.48961477,0 0.454545455,2.06407742 0.454545455,4.61024595 L0.454545455,10.3405766 C0.454545455,10.7715699 0.808623489,11.06661 1.24540088,10.9743176 L8.75459912,9.38760197 C9.20018109,9.29344919 9.54545455,8.86095704 9.54545455,8.41744833 L9.54545455,4.61024595 Z M5,6.14699459 C5.83679508,6.14699459 6.51515152,5.45896879 6.51515152,4.61024595 C6.51515152,3.7615231 5.83679508,3.0734973 5,3.0734973 C4.16320492,3.0734973 3.48484848,3.7615231 3.48484848,4.61024595 C3.48484848,5.45896879 4.16320492,6.14699459 5,6.14699459 Z" id="Oval-23"></path>
                </g>
                <g id="Fill-1-+-Oval-1-+-Oval-2-Copy" transform="translate(98.000000, 78.000000)" sketch:type="MSShapeGroup" fill="#51A601">
                    <path d="M73.9287451,36.1850588 C73.9287451,34.2406936 72.4123927,32.6935991 70.5048278,32.5547159 C70.3431697,31.0819077 70.0618848,29.6478576 69.7127034,28.2364165 C71.4780092,27.4644841 72.3832942,25.4749011 71.7140299,23.6435804 C71.051232,21.8090299 69.0563717,20.8659159 67.2167032,21.4085294 C66.5636048,20.0972134 65.8555425,18.8149659 65.040786,17.6070048 C66.4245788,16.2763097 66.5959364,14.1058556 65.34147,12.6168982 C64.0837704,11.1117916 61.8819879,10.9018518 60.3203712,12.0710548 C59.2728271,11.0730335 58.1541535,10.1525284 56.9837493,9.29662012 C57.882568,7.56219471 57.2941327,5.4175793 55.5805575,4.4292475 C53.8669822,3.43768586 51.7136971,3.99967845 50.6564535,5.65012796 C49.3437902,5.07844584 47.9826295,4.60365899 46.5859041,4.20315852 C46.8542564,2.25233366 45.5609921,0.421012976 43.6016966,0.0786496723 C41.639168,-0.286322528 39.7477689,1.03145321 39.3630228,2.98873775 C38.703458,2.94997964 38.0503595,2.88861263 37.3810952,2.88861263 C36.611603,2.88861263 35.8550433,2.95320948 35.0984837,3.00488696 C34.7169707,1.03791289 32.8449706,-0.286322528 30.8533435,0.0786496723 C28.8681828,0.427472661 27.5490532,2.30401114 27.8691361,4.28390459 C26.5015091,4.69086474 25.1791463,5.18503064 23.8923483,5.75348292 C22.8642032,4.00936798 20.6236227,3.41184712 18.8744827,4.4292475 C17.1124101,5.44664788 16.507809,7.69784809 17.5262547,9.45811225 L17.5359541,9.4774913 C16.4108142,10.3140205 15.3341716,11.2086869 14.3221923,12.1776396 L14.3060265,12.1614904 C12.7444098,10.8534042 10.4197672,11.0601141 9.11357022,12.6168982 C7.80414009,14.1736823 8.01106238,16.495939 9.56944589,17.8007954 L9.59207802,17.8201744 C8.82258575,18.9829177 8.14362197,20.207028 7.51962194,21.4634368 L7.4646582,21.4440577 C5.55709332,20.7528714 3.43613983,21.7347435 2.74101025,23.6435804 C2.04264752,25.5524173 3.02876156,27.6679642 4.94279277,28.3591505 L5.01068914,28.3849892 C4.68737306,29.7286037 4.42225388,31.0980569 4.26706216,32.5030384 L4.21209842,32.5030384 C2.17520711,32.5030384 0.526295093,34.150258 0.526295093,36.1850588 C0.526295093,38.2198596 2.17520711,39.8670792 4.21209842,39.8670792 L4.26706216,39.8670792 C4.42225388,41.2688309 4.68737306,42.6350542 5.01068914,43.9786687 L4.94279277,44.0045075 C3.02876156,44.6989236 2.04264752,46.8112406 2.74101025,48.7200775 C3.28418127,50.2187244 4.69707255,51.1456892 6.20372549,51.1456892 C6.62080323,51.1456892 7.04758046,51.0714028 7.4646582,50.9228301 L7.51962194,50.9002212 C8.14362197,52.1598597 8.81935259,53.38397 9.59207802,54.5467133 L9.56944589,54.5628625 C8.01106238,55.8709487 7.80414009,58.1932055 9.11357022,59.7499896 C9.8410314,60.6188172 10.8853423,61.0645355 11.9393528,61.0645355 C12.7767414,61.0645355 13.6141301,60.7803093 14.3060265,60.2021675 L14.3221923,60.1860183 C15.3341716,61.1549711 16.4108142,62.0496374 17.5359541,62.8861666 L17.5262547,62.9055457 C16.507809,64.6690397 17.1124101,66.91701 18.8744827,67.9344104 C19.4564517,68.270314 20.0901512,68.4285763 20.7141512,68.4285763 C21.9783171,68.4285763 23.2069182,67.7761481 23.8923483,66.6134049 C25.1791463,67.1818571 26.5015091,67.676023 27.8691361,68.0829832 C27.5490532,70.0628766 28.8681828,71.942645 30.8533435,72.2914679 C31.0699653,72.330226 31.2865871,72.3463753 31.4967425,72.3463753 C33.2361831,72.3463753 34.7654681,71.1158053 35.1017169,69.3620008 C35.8582765,69.4136783 36.611603,69.4782751 37.3810952,69.4782751 C38.0503595,69.4782751 38.703458,69.4169081 39.3597897,69.37815 C39.7057379,71.122265 41.2253234,72.3463753 42.9582976,72.3463753 C43.1716863,72.3463753 43.3850749,72.330226 43.6016966,72.2914679 C45.5609921,71.9458748 46.8574896,70.1113243 46.5859041,68.1604994 C47.9793964,67.7632288 49.3340908,67.2884419 50.6467541,66.7199897 C51.3451168,67.8084466 52.5219873,68.4285763 53.740889,68.4285763 C54.3681222,68.4285763 55.0018217,68.270314 55.5805575,67.9344104 C57.2908995,66.9493085 57.882568,64.8046931 56.9837493,63.0670378 C58.1541535,62.2143594 59.269594,61.2938543 60.3171381,60.2990628 C60.9767029,60.7932287 61.742962,61.0645355 62.5156874,61.0645355 C63.5696978,61.0645355 64.6140088,60.6188172 65.34147,59.7499896 C66.5959364,58.2578023 66.4245788,56.0873482 65.040786,54.7566531 C65.8555425,53.5519218 66.5603716,52.2729042 67.2134701,50.9615882 C67.5594183,51.0617133 67.9085997,51.1456892 68.2545479,51.1456892 C69.7579676,51.1456892 71.1708589,50.2187244 71.7140299,48.7200775 C72.3832942,46.8887568 71.4812424,44.9024037 69.7159365,44.1272415 C70.0618848,42.7190302 70.3431697,41.2849801 70.5048278,39.8121719 C72.4123927,39.6732887 73.9287451,38.1261941 73.9287451,36.1850588 L73.9287451,36.1850588 Z M37.2291367,47.4636688 C30.9923695,47.4636688 25.9357059,42.4121951 25.9357059,36.181829 C25.9357059,29.9514628 30.9923695,24.903219 37.2291367,24.903219 C43.4659039,24.903219 48.5193342,29.9514628 48.5193342,36.181829 C48.5193342,42.4121951 43.4659039,47.4636688 37.2291367,47.4636688 L37.2291367,47.4636688 Z" id="Fill-1" stroke="#51A601" stroke-width="2.79000002" stroke-linecap="round" stroke-linejoin="round" fill-opacity="0.699999988"></path>
                    <ellipse id="Oval-1" stroke="#51A601" stroke-width="2.79000002" fill-opacity="0.6" cx="37.2275201" cy="36.4279241" rx="4.09035" ry="4.0861519"></ellipse>
                    <path d="M37.2275201,29.9365547 C37.7383835,29.9365547 38.1525201,29.5228431 38.1525201,29.0125041 C38.1525201,28.502165 37.7383835,28.0884534 37.2275201,28.0884534 C36.7166567,28.0884534 36.3025201,28.502165 36.3025201,29.0125041 C36.3025201,29.5228431 36.7166567,29.9365547 37.2275201,29.9365547 Z M41.3901801,31.4498622 C41.7815242,31.7782388 42.3646999,31.7275193 42.6927395,31.3365768 C43.0207791,30.9456344 42.9694608,30.3625111 42.5781167,30.0341345 C42.1867726,29.7057578 41.6035969,29.7564774 41.2755573,30.1474198 C40.9475177,30.5383622 40.998836,31.1214855 41.3901801,31.4498622 Z M43.6050852,35.2816912 C43.6937957,35.7847934 44.1731362,36.1207981 44.675722,36.0321786 C45.1783079,35.9435592 45.5138202,35.463874 45.4251097,34.9607718 C45.3363992,34.4576695 44.8570588,34.1216648 44.3544729,34.2102843 C43.851887,34.2989037 43.5163747,34.7785889 43.6050852,35.2816912 Z M42.8358568,39.6390863 C42.5804251,40.081507 42.7316415,40.6470156 43.1736081,40.9021852 C43.6155747,41.1573547 44.1809277,41.0055577 44.4363594,40.563137 C44.6917911,40.1207163 44.5405747,39.5552077 44.0986081,39.3000382 C43.6566415,39.0448686 43.0912885,39.1966657 42.8358568,39.6390863 Z M39.4424252,42.4831741 C38.9623707,42.6578996 38.7147072,43.1883044 38.8892535,43.6678662 C39.0637997,44.1474281 39.5944585,44.3945467 40.0745131,44.2198212 C40.5545676,44.0450956 40.8022311,43.5146908 40.6276848,43.035129 C40.4531386,42.5555671 39.9224798,42.3084485 39.4424252,42.4831741 Z M35.012615,42.4831741 C34.5325604,42.3084485 34.0019016,42.5555671 33.8273554,43.035129 C33.6528091,43.5146908 33.9004725,44.0450956 34.3805271,44.2198212 C34.8605817,44.3945467 35.3912405,44.1474281 35.5657867,43.6678662 C35.7403329,43.1883044 35.4926695,42.6578996 35.012615,42.4831741 Z M31.6191834,39.6390863 C31.3637517,39.1966657 30.7983987,39.0448686 30.3564321,39.3000382 C29.9144655,39.5552077 29.7632491,40.1207163 30.0186808,40.563137 C30.2741125,41.0055577 30.8394655,41.1573547 31.2814321,40.9021852 C31.7233987,40.6470156 31.8746151,40.081507 31.6191834,39.6390863 Z M30.8499549,35.2816912 C30.9386654,34.7785889 30.6031532,34.2989037 30.1005673,34.2102843 C29.5979814,34.1216648 29.118641,34.4576695 29.0299305,34.9607718 C28.94122,35.463874 29.2767323,35.9435592 29.7793182,36.0321786 C30.281904,36.1207981 30.7612445,35.7847934 30.8499549,35.2816912 Z M33.0648601,31.4498622 C33.4562041,31.1214855 33.5075225,30.5383622 33.1794829,30.1474198 C32.8514433,29.7564774 32.2682675,29.7057578 31.8769235,30.0341345 C31.4855794,30.3625111 31.434261,30.9456344 31.7623007,31.3365768 C32.0903403,31.7275193 32.673516,31.7782388 33.0648601,31.4498622 Z" id="Oval-2"></path>
                </g>
                <g id="Group" transform="translate(129.000000, 51.000000)" fill="#51A601" sketch:type="MSShapeGroup">
                    <path d="M0.263157895,18.0583333 L9.73684211,15.8583333" id="Line-Copy-3" stroke="#51A601" stroke-width="2.42283249" stroke-linecap="round"></path>
                    <path d="M0.263157895,14.3916667 L9.73684211,12.1916667" id="Line-Copy-4" stroke="#51A601" stroke-width="2.42283249" stroke-linecap="round"></path>
                    <path d="M0.263157895,21.725 L9.73684211,19.525" id="Line-Copy-5" stroke="#51A601" stroke-width="2.42283249" stroke-linecap="round"></path>
                    <path d="M9.54545455,4.61024595 C9.54545455,2.06407742 7.51038523,0 5,0 C2.48961477,0 0.454545455,2.06407742 0.454545455,4.61024595 L0.454545455,10.3405766 C0.454545455,10.7715699 0.808623489,11.06661 1.24540088,10.9743176 L8.75459912,9.38760197 C9.20018109,9.29344919 9.54545455,8.86095704 9.54545455,8.41744833 L9.54545455,4.61024595 Z M5,6.14699459 C5.83679508,6.14699459 6.51515152,5.45896879 6.51515152,4.61024595 C6.51515152,3.7615231 5.83679508,3.0734973 5,3.0734973 C4.16320492,3.0734973 3.48484848,3.7615231 3.48484848,4.61024595 C3.48484848,5.45896879 4.16320492,6.14699459 5,6.14699459 Z" id="Oval-23-Copy"></path>
                </g>
                <path d="M103,76 L103,82.3509536 C103,84.918551 100.916249,87 98.3487343,87 L87.6512657,87 C85.0824426,87 83,84.9180522 83,82.3509536 L83,76" id="Rectangle-3" stroke="#51A601" stroke-width="3.72000003" stroke-linecap="round" stroke-linejoin="round" sketch:type="MSShapeGroup"></path>
                <rect id="Rectangle-3" stroke="#51A601" stroke-width="3.72000003" stroke-linecap="round" stroke-linejoin="round" sketch:type="MSShapeGroup" x="14" y="55" width="17" height="18" rx="3.72000003"></rect>
                <rect id="Rectangle-3-Copy" stroke="#51A601" stroke-width="3.72000003" stroke-linecap="round" stroke-linejoin="round" sketch:type="MSShapeGroup" x="160" y="55" width="10" height="18" rx="3.72000003"></rect>
                <path d="M88.4375,34 L94.5625,34" id="Line" stroke="#51A601" stroke-width="3.72000003" stroke-linecap="round" fill="#51A601" sketch:type="MSShapeGroup"></path>
                <path d="M159.675761,35 C159.675761,35 153.449481,46.3477432 165,52" id="Path-16" stroke="#51A601" stroke-width="2.79000002" fill-opacity="0.5" fill="#51A601" sketch:type="MSShapeGroup"></path>
                <path d="M80,60 L107,60" id="Line" stroke="#51A601" stroke-width="4.65000004" stroke-linecap="square" opacity="0.5" sketch:type="MSShapeGroup"></path>
                <path d="M62.9999887,2.00000574 C53.9248394,2.71049571 48.26318,4.00830508 48.26318,4.00830508 C34.3022778,6.09146721 23,19.4332031 23,33.5576189 L23,54 C27.9576755,31.2974054 42.9090524,12.3424307 63,2.00000001 Z" id="Rectangle-5-Copy-3" opacity="0.4" fill="#FFFFFF" sketch:type="MSShapeGroup"></path>
                <path d="M67.9869783,6 C70.7555937,6 73,8.19756085 73,10.8925504 L73,21.1074496 C73,23.8095306 70.7519241,26 67.9725952,26 L37.0274048,26 C34.2508458,26 32,23.8038457 32,21.0984185" id="Rectangle-8" stroke="#51A601" stroke-width="2.79000002" stroke-linecap="round" sketch:type="MSShapeGroup"></path>
                <path d="M11.5,20.4583333 L11.5,41.5416667" id="Line" stroke="#FFFFFF" stroke-width="2.79000002" stroke-linecap="round" opacity="0.4" sketch:type="MSShapeGroup"></path>
                <path d="M83,81 L102,81" id="Line" stroke="#51A601" stroke-width="3.72000003" stroke-linecap="square" sketch:type="MSShapeGroup"></path>
                <path d="M0,156 L193,156" id="Line-Copy-4" stroke="#51A601" stroke-width="4.65000004" stroke-linecap="round" opacity="0.1" sketch:type="MSShapeGroup"></path>
            </g>
        </g>
    </g>
</svg>