<?xml version="1.0" encoding="utf-8"?>
<!-- Generator: Adobe Illustrator 17.1.0, SVG Export Plug-In . SVG Version: 6.00 Build 0)  -->
<!DOCTYPE svg PUBLIC "-//W3C//DTD SVG 1.1//EN" "http://www.w3.org/Graphics/SVG/1.1/DTD/svg11.dtd">
<svg version="1.1" id="Layer_1" xmlns:sketch="http://www.bohemiancoding.com/sketch/ns"
	 xmlns="http://www.w3.org/2000/svg" xmlns:xlink="http://www.w3.org/1999/xlink" x="0px" y="0px" viewBox="0 0 199 161"
	 enable-background="new 0 0 199 161" xml:space="preserve">
<title>monster</title>
<desc>Created with Sketch Beta.</desc>
<path id="Rectangle-7" sketch:type="MSShapeGroup" fill="#FFFFFF" fill-opacity="0.3" stroke="#FFFFFF" stroke-width="3.72" d="
	M14.6,18h5.7c2.6,0,4.6,2.1,4.6,4.6v29.7c0,2.6-2.1,4.7-4.6,4.7h-5.7c-2.6,0-4.6-2.1-4.6-4.7V22.6C10,20.1,12.1,18,14.6,18z"/>
<path id="Rectangle-5" sketch:type="MSShapeGroup" fill="#FFFFFF" fill-opacity="0.3" stroke="#FFFFFF" stroke-width="3.348" stroke-linecap="round" stroke-linejoin="round" d="
	M168,57.5V54c0-12.3-9.9-23.4-22.2-24.6c0,0-5.7-0.8-13.9-1.3c-3.2-11.7-13.4-21.5-25.4-23.4c0,0-11.2-2.6-27.5-2.6
	S51.4,4.6,51.4,4.6C36.8,6.8,25,20.7,25,35.5v22h5.6c0.7,0,1.4,0.2,2,0.6c4.6-8.3,13.3-13.9,23.4-13.9c14.8,0,26.8,12.1,26.8,27
	c0,0.3,0,0.6,0,0.8h13.8h13.8c0-0.3,0-0.6,0-0.8c0-14.9,12-27,26.8-27c13.1,0,24,9.5,26.3,22v-4.9c0-2.1,1.7-3.7,3.7-3.7H168z
	 M102.3,10.2c0,0-4.7-1.1-12.3-1.7v17.4c0,1.7,1.4,3.1,3.1,3.1h30.3C120.6,19.6,112.2,11.8,102.3,10.2z"/>
<path id="Fill-1" fill="#FFFFFF" fill-opacity="0.7" stroke="#FFFFFF" stroke-width="2.79" stroke-linecap="round" stroke-linejoin="round" d="
	M88.9,116.2c0-1.9-1.5-3.5-3.4-3.6c-0.2-1.5-0.4-2.9-0.8-4.3c1.8-0.8,2.7-2.8,2-4.6c-0.7-1.8-2.7-2.8-4.5-2.2
	c-0.7-1.3-1.4-2.6-2.2-3.8c1.4-1.3,1.6-3.5,0.3-5c-1.3-1.5-3.5-1.7-5-0.5c-1-1-2.2-1.9-3.3-2.8c0.9-1.7,0.3-3.9-1.4-4.9
	c-1.7-1-3.9-0.4-4.9,1.2c-1.3-0.6-2.7-1-4.1-1.4c0.3-2-1-3.8-3-4.1c-2-0.4-3.9,1-4.2,2.9c-0.7,0-1.3-0.1-2-0.1
	c-0.8,0-1.5,0.1-2.3,0.1c-0.4-2-2.3-3.3-4.2-2.9c-2,0.3-3.3,2.2-3,4.2c-1.4,0.4-2.7,0.9-4,1.5c-1-1.7-3.3-2.3-5-1.3
	c-1.8,1-2.4,3.3-1.3,5l0,0c-1.1,0.8-2.2,1.7-3.2,2.7l0,0c-1.6-1.3-3.9-1.1-5.2,0.5c-1.3,1.6-1.1,3.9,0.5,5.2l0,0
	c-0.8,1.2-1.4,2.4-2.1,3.6l-0.1,0c-1.9-0.7-4,0.3-4.7,2.2c-0.7,1.9,0.3,4,2.2,4.7l0.1,0c-0.3,1.3-0.6,2.7-0.7,4.1h-0.1
	c-2,0-3.7,1.6-3.7,3.7s1.6,3.7,3.7,3.7h0.1c0.2,1.4,0.4,2.8,0.7,4.1l-0.1,0c-1.9,0.7-2.9,2.8-2.2,4.7c0.5,1.5,2,2.4,3.5,2.4
	c0.4,0,0.8-0.1,1.3-0.2l0.1,0c0.6,1.3,1.3,2.5,2.1,3.6l0,0c-1.6,1.3-1.8,3.6-0.5,5.2c0.7,0.9,1.8,1.3,2.8,1.3c0.8,0,1.7-0.3,2.4-0.9
	l0,0c1,1,2.1,1.9,3.2,2.7l0,0c-1,1.8-0.4,4,1.3,5c0.6,0.3,1.2,0.5,1.8,0.5c1.3,0,2.5-0.7,3.2-1.8c1.3,0.6,2.6,1.1,4,1.5
	c-0.3,2,1,3.9,3,4.2c0.2,0,0.4,0.1,0.6,0.1c1.7,0,3.3-1.2,3.6-3c0.8,0.1,1.5,0.1,2.3,0.1c0.7,0,1.3-0.1,2-0.1c0.3,1.7,1.9,3,3.6,3
	c0.2,0,0.4,0,0.6-0.1c2-0.3,3.3-2.2,3-4.1c1.4-0.4,2.7-0.9,4.1-1.4c0.7,1.1,1.9,1.7,3.1,1.7c0.6,0,1.3-0.2,1.8-0.5
	c1.7-1,2.3-3.1,1.4-4.9c1.2-0.9,2.3-1.8,3.3-2.8c0.7,0.5,1.4,0.8,2.2,0.8c1.1,0,2.1-0.4,2.8-1.3c1.3-1.5,1.1-3.7-0.3-5
	c0.8-1.2,1.5-2.5,2.2-3.8c0.3,0.1,0.7,0.2,1,0.2c1.5,0,2.9-0.9,3.5-2.4c0.7-1.8-0.2-3.8-2-4.6c0.3-1.4,0.6-2.8,0.8-4.3
	C87.4,119.7,88.9,118.1,88.9,116.2L88.9,116.2z M52.2,127.5c-6.2,0-11.3-5.1-11.3-11.3c0-6.2,5.1-11.3,11.3-11.3s11.3,5,11.3,11.3
	C63.5,122.4,58.5,127.5,52.2,127.5L52.2,127.5z"/>
<ellipse id="Oval-1" fill="#FFFFFF" fill-opacity="0.6" stroke="#FFFFFF" stroke-width="2.79" cx="52.2" cy="116.4" rx="4.1" ry="4.1"/>
<path id="Oval-2" fill="#FFFFFF" d="M52.2,109.9c0.5,0,0.9-0.4,0.9-0.9s-0.4-0.9-0.9-0.9s-0.9,0.4-0.9,0.9S51.7,109.9,52.2,109.9z
	 M56.4,111.4c0.4,0.3,1,0.3,1.3-0.1c0.3-0.4,0.3-1-0.1-1.3c-0.4-0.3-1-0.3-1.3,0.1C55.9,110.5,56,111.1,56.4,111.4z M58.6,115.3
	c0.1,0.5,0.6,0.8,1.1,0.8c0.5-0.1,0.8-0.6,0.7-1.1c-0.1-0.5-0.6-0.8-1.1-0.8C58.9,114.3,58.5,114.8,58.6,115.3z M57.8,119.6
	c-0.3,0.4-0.1,1,0.3,1.3c0.4,0.3,1,0.1,1.3-0.3c0.3-0.4,0.1-1-0.3-1.3C58.7,119,58.1,119.2,57.8,119.6z M54.4,122.5
	c-0.5,0.2-0.7,0.7-0.6,1.2c0.2,0.5,0.7,0.7,1.2,0.6c0.5-0.2,0.7-0.7,0.6-1.2C55.5,122.6,54.9,122.3,54.4,122.5z M50,122.5
	c-0.5-0.2-1,0.1-1.2,0.6c-0.2,0.5,0.1,1,0.6,1.2c0.5,0.2,1-0.1,1.2-0.6C50.7,123.2,50.5,122.7,50,122.5z M46.6,119.6
	c-0.3-0.4-0.8-0.6-1.3-0.3c-0.4,0.3-0.6,0.8-0.3,1.3c0.3,0.4,0.8,0.6,1.3,0.3C46.7,120.6,46.9,120.1,46.6,119.6z M45.8,115.3
	c0.1-0.5-0.2-1-0.7-1.1c-0.5-0.1-1,0.2-1.1,0.8c-0.1,0.5,0.2,1,0.7,1.1C45.3,116.1,45.8,115.8,45.8,115.3z M48.1,111.4
	c0.4-0.3,0.4-0.9,0.1-1.3c-0.3-0.4-0.9-0.4-1.3-0.1c-0.4,0.3-0.4,0.9-0.1,1.3C47.1,111.7,47.7,111.8,48.1,111.4z"/>
<path id="Line-Copy" fill="#51A601" stroke="#FFFFFF" stroke-width="2.4228" stroke-linecap="round" d="M47.3,71.1l9.5-2.2"/>
<path id="Line-Copy-2" fill="#51A601" stroke="#FFFFFF" stroke-width="2.4228" stroke-linecap="round" d="M47.3,67.4l9.5-2.2"/>
<path id="Line" fill="#51A601" stroke="#FFFFFF" stroke-width="2.4228" stroke-linecap="round" d="M47.3,74.7l9.5-2.2"/>
<path id="Oval-23" fill="#FFFFFF" d="M56.5,57.6c0-2.5-2-4.6-4.5-4.6s-4.5,2.1-4.5,4.6v5.7c0,0.4,0.4,0.7,0.8,0.6l7.5-1.6
	c0.4-0.1,0.8-0.5,0.8-1V57.6z M52,59.1c0.8,0,1.5-0.7,1.5-1.5c0-0.8-0.7-1.5-1.5-1.5s-1.5,0.7-1.5,1.5C50.5,58.5,51.2,59.1,52,59.1z
	"/>
<path id="Fill-1_1_" fill="#FFFFFF" fill-opacity="0.7" stroke="#FFFFFF" stroke-width="2.79" stroke-linecap="round" stroke-linejoin="round" d="
	M174.9,116.2c0-1.9-1.5-3.5-3.4-3.6c-0.2-1.5-0.4-2.9-0.8-4.3c1.8-0.8,2.7-2.8,2-4.6c-0.7-1.8-2.7-2.8-4.5-2.2
	c-0.7-1.3-1.4-2.6-2.2-3.8c1.4-1.3,1.6-3.5,0.3-5c-1.3-1.5-3.5-1.7-5-0.5c-1-1-2.2-1.9-3.3-2.8c0.9-1.7,0.3-3.9-1.4-4.9
	c-1.7-1-3.9-0.4-4.9,1.2c-1.3-0.6-2.7-1-4.1-1.4c0.3-2-1-3.8-3-4.1c-2-0.4-3.9,1-4.2,2.9c-0.7,0-1.3-0.1-2-0.1
	c-0.8,0-1.5,0.1-2.3,0.1c-0.4-2-2.3-3.3-4.2-2.9c-2,0.3-3.3,2.2-3,4.2c-1.4,0.4-2.7,0.9-4,1.5c-1-1.7-3.3-2.3-5-1.3
	c-1.8,1-2.4,3.3-1.3,5l0,0c-1.1,0.8-2.2,1.7-3.2,2.7l0,0c-1.6-1.3-3.9-1.1-5.2,0.5c-1.3,1.6-1.1,3.9,0.5,5.2l0,0
	c-0.8,1.2-1.4,2.4-2.1,3.6l-0.1,0c-1.9-0.7-4,0.3-4.7,2.2c-0.7,1.9,0.3,4,2.2,4.7l0.1,0c-0.3,1.3-0.6,2.7-0.7,4.1h-0.1
	c-2,0-3.7,1.6-3.7,3.7s1.6,3.7,3.7,3.7h0.1c0.2,1.4,0.4,2.8,0.7,4.1l-0.1,0c-1.9,0.7-2.9,2.8-2.2,4.7c0.5,1.5,2,2.4,3.5,2.4
	c0.4,0,0.8-0.1,1.3-0.2l0.1,0c0.6,1.3,1.3,2.5,2.1,3.6l0,0c-1.6,1.3-1.8,3.6-0.5,5.2c0.7,0.9,1.8,1.3,2.8,1.3c0.8,0,1.7-0.3,2.4-0.9
	l0,0c1,1,2.1,1.9,3.2,2.7l0,0c-1,1.8-0.4,4,1.3,5c0.6,0.3,1.2,0.5,1.8,0.5c1.3,0,2.5-0.7,3.2-1.8c1.3,0.6,2.6,1.1,4,1.5
	c-0.3,2,1,3.9,3,4.2c0.2,0,0.4,0.1,0.6,0.1c1.7,0,3.3-1.2,3.6-3c0.8,0.1,1.5,0.1,2.3,0.1c0.7,0,1.3-0.1,2-0.1c0.3,1.7,1.9,3,3.6,3
	c0.2,0,0.4,0,0.6-0.1c2-0.3,3.3-2.2,3-4.1c1.4-0.4,2.7-0.9,4.1-1.4c0.7,1.1,1.9,1.7,3.1,1.7c0.6,0,1.3-0.2,1.8-0.5
	c1.7-1,2.3-3.1,1.4-4.9c1.2-0.9,2.3-1.8,3.3-2.8c0.7,0.5,1.4,0.8,2.2,0.8c1.1,0,2.1-0.4,2.8-1.3c1.3-1.5,1.1-3.7-0.3-5
	c0.8-1.2,1.5-2.5,2.2-3.8c0.3,0.1,0.7,0.2,1,0.2c1.5,0,2.9-0.9,3.5-2.4c0.7-1.8-0.2-3.8-2-4.6c0.3-1.4,0.6-2.8,0.8-4.3
	C173.4,119.7,174.9,118.1,174.9,116.2L174.9,116.2z M138.2,127.5c-6.2,0-11.3-5.1-11.3-11.3c0-6.2,5.1-11.3,11.3-11.3
	s11.3,5,11.3,11.3C149.5,122.4,144.5,127.5,138.2,127.5L138.2,127.5z"/>
<ellipse id="Oval-1_1_" fill="#FFFFFF" fill-opacity="0.6" stroke="#FFFFFF" stroke-width="2.79" cx="138.2" cy="116.4" rx="4.1" ry="4.1"/>
<path id="Oval-2_1_" fill="#FFFFFF" d="M138.2,109.9c0.5,0,0.9-0.4,0.9-0.9s-0.4-0.9-0.9-0.9s-0.9,0.4-0.9,0.9
	S137.7,109.9,138.2,109.9z M142.4,111.4c0.4,0.3,1,0.3,1.3-0.1c0.3-0.4,0.3-1-0.1-1.3c-0.4-0.3-1-0.3-1.3,0.1
	C141.9,110.5,142,111.1,142.4,111.4z M144.6,115.3c0.1,0.5,0.6,0.8,1.1,0.8c0.5-0.1,0.8-0.6,0.7-1.1c-0.1-0.5-0.6-0.8-1.1-0.8
	C144.9,114.3,144.5,114.8,144.6,115.3z M143.8,119.6c-0.3,0.4-0.1,1,0.3,1.3c0.4,0.3,1,0.1,1.3-0.3c0.3-0.4,0.1-1-0.3-1.3
	C144.7,119,144.1,119.2,143.8,119.6z M140.4,122.5c-0.5,0.2-0.7,0.7-0.6,1.2c0.2,0.5,0.7,0.7,1.2,0.6c0.5-0.2,0.7-0.7,0.6-1.2
	C141.5,122.6,140.9,122.3,140.4,122.5z M136,122.5c-0.5-0.2-1,0.1-1.2,0.6c-0.2,0.5,0.1,1,0.6,1.2c0.5,0.2,1-0.1,1.2-0.6
	C136.7,123.2,136.5,122.7,136,122.5z M132.6,119.6c-0.3-0.4-0.8-0.6-1.3-0.3c-0.4,0.3-0.6,0.8-0.3,1.3c0.3,0.4,0.8,0.6,1.3,0.3
	C132.7,120.6,132.9,120.1,132.6,119.6z M131.8,115.3c0.1-0.5-0.2-1-0.7-1.1c-0.5-0.1-1,0.2-1.1,0.8c-0.1,0.5,0.2,1,0.7,1.1
	C131.3,116.1,131.8,115.8,131.8,115.3z M134.1,111.4c0.4-0.3,0.4-0.9,0.1-1.3c-0.3-0.4-0.9-0.4-1.3-0.1s-0.4,0.9-0.1,1.3
	S133.7,111.8,134.1,111.4z"/>
<path id="Line-Copy-3" fill="#51A601" stroke="#FFFFFF" stroke-width="2.4228" stroke-linecap="round" d="M132.3,71.1l9.5-2.2"/>
<path id="Line-Copy-4" fill="#51A601" stroke="#FFFFFF" stroke-width="2.4228" stroke-linecap="round" d="M132.3,67.4l9.5-2.2"/>
<path id="Line-Copy-5" fill="#51A601" stroke="#FFFFFF" stroke-width="2.4228" stroke-linecap="round" d="M132.3,74.7l9.5-2.2"/>
<path id="Oval-23-Copy" fill="#FFFFFF" d="M141.5,57.6c0-2.5-2-4.6-4.5-4.6s-4.5,2.1-4.5,4.6v5.7c0,0.4,0.4,0.7,0.8,0.6l7.5-1.6
	c0.4-0.1,0.8-0.5,0.8-1V57.6z M137,59.1c0.8,0,1.5-0.7,1.5-1.5c0-0.8-0.7-1.5-1.5-1.5s-1.5,0.7-1.5,1.5
	C135.5,58.5,136.2,59.1,137,59.1z"/>
<path id="Rectangle-3" sketch:type="MSShapeGroup" fill="none" stroke="#FFFFFF" stroke-width="3.72" stroke-linecap="round" stroke-linejoin="round" d="
	M106,78v6.4c0,2.6-2.1,4.6-4.7,4.6H90.7c-2.6,0-4.7-2.1-4.7-4.6V78"/>
<path id="Rectangle-3_1_" sketch:type="MSShapeGroup" fill="none" stroke="#FFFFFF" stroke-width="3.72" stroke-linecap="round" stroke-linejoin="round" d="
	M20.7,57h9.6c2.1,0,3.7,1.7,3.7,3.7v10.6c0,2.1-1.7,3.7-3.7,3.7h-9.6c-2.1,0-3.7-1.7-3.7-3.7V60.7C17,58.7,18.7,57,20.7,57z"/>
<path id="Rectangle-3-Copy" sketch:type="MSShapeGroup" fill="none" stroke="#FFFFFF" stroke-width="3.72" stroke-linecap="round" stroke-linejoin="round" d="
	M166.7,57h2.6c2.1,0,3.7,1.7,3.7,3.7v10.6c0,2.1-1.7,3.7-3.7,3.7h-2.6c-2.1,0-3.7-1.7-3.7-3.7V60.7C163,58.7,164.7,57,166.7,57z"/>
<path id="Line_1_" sketch:type="MSShapeGroup" fill="#51A601" stroke="#FFFFFF" stroke-width="3.72" stroke-linecap="round" d="
	M91.4,36h6.1"/>
<path id="Path-16" sketch:type="MSShapeGroup" fill="#FFFFFF" fill-opacity="0.5" stroke="#FFFFFF" stroke-width="2.79" d="
	M162.7,37c0,0-6.2,11.3,5.3,17"/>
<path id="Line_2_" sketch:type="MSShapeGroup" opacity="0.5" fill="none" stroke="#FFFFFF" stroke-width="4.65" stroke-linecap="square" enable-background="new    " d="
	M83,62h27"/>
<path id="Rectangle-5-Copy-3" sketch:type="MSShapeGroup" opacity="0.4" fill="#FFFFFF" enable-background="new    " d="M66,4
	c-9.1,0.7-14.7,2-14.7,2C37.3,8.1,26,21.4,26,35.6V56C31,33.3,45.9,14.3,66,4L66,4z"/>
<path id="Rectangle-8" sketch:type="MSShapeGroup" fill="none" stroke="#FFFFFF" stroke-width="2.79" stroke-linecap="round" d="
	M71,8c2.8,0,5,2.2,5,4.9v10.2c0,2.7-2.2,4.9-5,4.9H40c-2.8,0-5-2.2-5-4.9"/>
<path id="Line_3_" sketch:type="MSShapeGroup" opacity="0.4" fill="none" stroke="#FFFFFF" stroke-width="2.79" stroke-linecap="round" enable-background="new    " d="
	M14.5,22.5v21.1"/>
<path id="Line_4_" sketch:type="MSShapeGroup" fill="none" stroke="#FFFFFF" stroke-width="3.72" stroke-linecap="square" d="M86,83
	h19"/>
<path id="Line-Copy-4_1_" sketch:type="MSShapeGroup" opacity="0.1" fill="none" stroke="#FFFFFF" stroke-width="4.65" stroke-linecap="round" enable-background="new    " d="
	M3,158h193"/>
</svg>
